<?xml version="1.0" encoding="utf-8"?>
<!-- Generator: Adobe Illustrator 16.0.0, SVG Export Plug-In . SVG Version: 6.00 Build 0)  -->
<!DOCTYPE svg PUBLIC "-//W3C//DTD SVG 1.1//EN" "http://www.w3.org/Graphics/SVG/1.1/DTD/svg11.dtd">
<svg version="1.1" id="Layer_1" xmlns="http://www.w3.org/2000/svg" xmlns:xlink="http://www.w3.org/1999/xlink" x="0px" y="0px"
	 width="42px" height="42px" viewBox="0 0 42 42" enable-background="new 0 0 42 42" xml:space="preserve">
<g>
	<circle fill="none" stroke="#666666" stroke-miterlimit="10" cx="21" cy="21" r="20"/>
	<path fill="#666666" d="M22.736,21.697c0.31-0.055,0.619-0.082,0.93-0.082c0.564,0,1.166,0.072,1.805,0.219
		c-0.236,1.223-0.865,2.197-1.887,2.926l0,0C23.365,23.758,23.082,22.736,22.736,21.697L22.736,21.697z M18.279,24.65
		c0.291-0.455,0.646-0.885,1.066-1.285c0.692-0.656,1.485-1.131,2.379-1.422c0.363,1.058,0.655,2.16,0.875,3.309
		c-0.512,0.201-1.05,0.301-1.614,0.301C19.983,25.553,19.081,25.252,18.279,24.65L18.279,24.65z M16.447,20.932
		c0.091,0.019,0.255,0.027,0.492,0.027c1.531-0.018,2.907-0.219,4.129-0.602c0.109,0.219,0.2,0.42,0.273,0.602
		c-0.948,0.311-1.805,0.813-2.57,1.504c-0.492,0.456-0.912,0.939-1.258,1.449c-0.711-0.838-1.066-1.805-1.066-2.898V20.932z
		 M20.604,19.4c-1.112,0.347-2.307,0.52-3.582,0.52H16.94c-0.183,0-0.301-0.009-0.355-0.027c0.164-0.638,0.455-1.221,0.875-1.75
		c0.419-0.528,0.93-0.938,1.531-1.23C19.537,17.587,20.074,18.416,20.604,19.4L20.604,19.4z M23.83,17.459
		c-0.529,0.639-1.275,1.167-2.242,1.586c-0.456-0.893-0.976-1.723-1.559-2.488c0.346-0.072,0.665-0.109,0.957-0.109
		C22.063,16.447,23.01,16.785,23.83,17.459L23.83,17.459z M25.553,20.795c-0.656-0.146-1.285-0.219-1.887-0.219
		c-0.438,0-0.875,0.037-1.313,0.109c-0.129-0.31-0.229-0.537-0.302-0.684c1.021-0.455,1.859-1.057,2.517-1.805l0,0
		C25.17,18.963,25.498,19.829,25.553,20.795L25.553,20.795z M15.162,21c0,1.613,0.569,2.99,1.709,4.129
		c1.139,1.139,2.516,1.709,4.129,1.709c1.613,0,2.988-0.57,4.129-1.709c1.139-1.139,1.709-2.516,1.709-4.129
		c0-1.613-0.57-2.989-1.709-4.129c-1.141-1.139-2.516-1.709-4.129-1.709c-1.613,0-2.99,0.57-4.129,1.709
		C15.731,18.011,15.162,19.387,15.162,21z"/>
</g>
</svg>
