<?xml version="1.0" encoding="utf-8"?>
<!-- Generator: Adobe Illustrator 16.0.0, SVG Export Plug-In . SVG Version: 6.00 Build 0)  -->
<!DOCTYPE svg PUBLIC "-//W3C//DTD SVG 1.1//EN" "http://www.w3.org/Graphics/SVG/1.1/DTD/svg11.dtd">
<svg version="1.1" id="Layer_1" xmlns="http://www.w3.org/2000/svg" xmlns:xlink="http://www.w3.org/1999/xlink" x="0px" y="0px"
	 width="42px" height="42px" viewBox="0 0 42 42" enable-background="new 0 0 42 42" xml:space="preserve">
<g>
	<circle fill="#7AC143" stroke="#7AC143" stroke-miterlimit="10" cx="20.5" cy="20.5" r="20"/>
	<path fill="#FFFFFF" d="M22.879,21.456c0.425-0.076,0.849-0.112,1.274-0.112c0.773,0,1.598,0.098,2.474,0.299
		c-0.324,1.676-1.187,3.012-2.586,4.01l0,0C23.741,24.279,23.354,22.879,22.879,21.456L22.879,21.456z M16.771,25.502
		c0.399-0.623,0.885-1.212,1.461-1.761c0.948-0.899,2.035-1.55,3.26-1.949c0.496,1.45,0.896,2.961,1.2,4.535
		c-0.704,0.275-1.441,0.412-2.214,0.412C19.106,26.739,17.87,26.327,16.771,25.502L16.771,25.502z M14.26,20.407
		c0.125,0.026,0.35,0.037,0.675,0.037c2.098-0.025,3.984-0.3,5.658-0.825c0.149,0.301,0.274,0.576,0.375,0.825
		c-1.299,0.426-2.473,1.114-3.522,2.061c-0.674,0.625-1.25,1.287-1.724,1.985c-0.975-1.147-1.461-2.473-1.461-3.971V20.407z
		 M19.958,18.307c-1.524,0.476-3.162,0.713-4.909,0.713h-0.113c-0.25,0-0.412-0.012-0.486-0.037
		c0.225-0.875,0.624-1.673,1.199-2.398c0.574-0.723,1.274-1.285,2.098-1.686C18.495,15.823,19.231,16.959,19.958,18.307
		L19.958,18.307z M24.378,15.647c-0.725,0.876-1.747,1.599-3.072,2.173c-0.625-1.224-1.337-2.361-2.137-3.409
		c0.475-0.099,0.912-0.149,1.312-0.149C21.956,14.261,23.254,14.724,24.378,15.647L24.378,15.647z M26.739,20.219
		c-0.899-0.2-1.762-0.299-2.586-0.299c-0.6,0-1.199,0.05-1.799,0.149c-0.177-0.425-0.314-0.736-0.416-0.938
		c1.398-0.624,2.548-1.449,3.451-2.474l0,0C26.214,17.708,26.664,18.896,26.739,20.219L26.739,20.219z M12.5,20.5
		c0,2.211,0.779,4.098,2.342,5.658C16.402,27.719,18.29,28.5,20.5,28.5c2.211,0,4.095-0.781,5.658-2.342
		c1.561-1.561,2.342-3.447,2.342-5.658c0-2.21-0.781-4.096-2.342-5.658C24.595,13.281,22.711,12.5,20.5,12.5
		c-2.21,0-4.098,0.781-5.658,2.342C13.279,16.404,12.5,18.29,12.5,20.5z"/>
</g>
</svg>
