<?xml version="1.0" encoding="utf-8"?>
<!-- Generator: Adobe Illustrator 16.0.0, SVG Export Plug-In . SVG Version: 6.00 Build 0)  -->
<!DOCTYPE svg PUBLIC "-//W3C//DTD SVG 1.1//EN" "http://www.w3.org/Graphics/SVG/1.1/DTD/svg11.dtd">
<svg version="1.1" id="Layer_1" xmlns="http://www.w3.org/2000/svg" xmlns:xlink="http://www.w3.org/1999/xlink" x="0px" y="0px"
	 width="800px" height="600px" viewBox="0 0 800 600" enable-background="new 0 0 800 600" xml:space="preserve">
<circle fill="#7AC143" stroke="#FFFFFF" stroke-miterlimit="10" cx="231.461" cy="226.377" r="20"/>
<path fill="#FFFFFF" d="M237.299,222.768c-0.438,0.183-0.902,0.301-1.395,0.355c0.528-0.31,0.884-0.747,1.066-1.313
	c-0.475,0.273-0.984,0.465-1.531,0.574c-0.475-0.492-1.058-0.738-1.75-0.738c-0.656,0-1.217,0.232-1.682,0.697
	s-0.697,1.025-0.697,1.682c0,0.183,0.018,0.365,0.055,0.547c-0.984-0.055-1.9-0.301-2.748-0.738s-1.572-1.021-2.174-1.75
	c-0.219,0.365-0.328,0.766-0.328,1.203c0,0.839,0.355,1.504,1.066,1.996c-0.383-0.018-0.748-0.118-1.094-0.301v0.027
	c0,0.565,0.182,1.066,0.547,1.504c0.364,0.438,0.82,0.711,1.367,0.82c-0.201,0.073-0.41,0.109-0.629,0.109
	c-0.146,0-0.292-0.018-0.438-0.055c0.146,0.475,0.424,0.866,0.834,1.176c0.41,0.311,0.879,0.475,1.408,0.492
	c-0.875,0.675-1.869,1.012-2.98,1.012c-0.201,0-0.392-0.009-0.574-0.027c1.112,0.711,2.333,1.066,3.664,1.066
	c1.057,0,2.028-0.205,2.912-0.615c0.884-0.41,1.604-0.943,2.16-1.6c0.556-0.656,0.984-1.381,1.285-2.174s0.451-1.6,0.451-2.42
	c0-0.091,0-0.191,0-0.301l0,0C236.57,223.653,236.971,223.243,237.299,222.768L237.299,222.768z"/>
</svg>
