<?xml version="1.0" encoding="utf-8"?>
<!-- Generator: Adobe Illustrator 16.0.0, SVG Export Plug-In . SVG Version: 6.00 Build 0)  -->
<!DOCTYPE svg PUBLIC "-//W3C//DTD SVG 1.1//EN" "http://www.w3.org/Graphics/SVG/1.1/DTD/svg11.dtd">
<svg version="1.1" id="Layer_1" xmlns="http://www.w3.org/2000/svg" xmlns:xlink="http://www.w3.org/1999/xlink" x="0px" y="0px"
	 width="42px" height="42px" viewBox="0 0 42 42" enable-background="new 0 0 42 42" xml:space="preserve">
<g>
	<circle fill="none" stroke="#666666" stroke-miterlimit="10" cx="21" cy="21" r="21"/>
	<path fill="#666666" d="M18.137,21.055c0,0.511,0,0.843,0,0.994c0.924,0,1.848,0,2.772,0c-0.101,0.673-0.438,1.198-1.012,1.573
		c-0.325,0.224-0.7,0.374-1.123,0.451c-0.45,0.075-0.863,0.075-1.236,0c-0.4-0.077-0.774-0.24-1.124-0.487
		c-0.575-0.4-0.975-0.925-1.198-1.572c-0.224-0.676-0.224-1.337,0-1.987c0.174-0.474,0.424-0.885,0.75-1.236
		c0.424-0.427,0.937-0.7,1.535-0.825c0.5-0.126,1-0.112,1.499,0.037c0.426,0.126,0.799,0.351,1.124,0.675
		c0.099-0.127,0.257-0.295,0.47-0.505c0.21-0.211,0.368-0.356,0.467-0.431c0.025-0.051,0.1-0.132,0.225-0.244
		c0.125-0.112,0.211-0.205,0.262-0.28c-0.5-0.449-1.05-0.787-1.648-1.011c-1.15-0.427-2.3-0.436-3.448-0.037
		c-1.326,0.449-2.285,1.297-2.884,2.548c-0.225,0.399-0.375,0.824-0.449,1.275c-0.25,1.173-0.101,2.287,0.449,3.335
		c0.324,0.65,0.787,1.212,1.387,1.685c0.548,0.45,1.163,0.764,1.836,0.938c0.848,0.224,1.724,0.238,2.623,0.037
		c0.825-0.2,1.523-0.563,2.099-1.086c0.624-0.576,1.061-1.286,1.312-2.139c0.249-0.877,0.287-1.774,0.112-2.698
		c-0.525,0-2.124,0-4.796,0C18.137,20.212,18.137,20.543,18.137,21.055z M27.24,20.174v-1.76h-1.273v1.76h-1.762v1.274h1.762v1.723
		h1.273v-1.723h1.761v-1.274H27.24z"/>
</g>
</svg>
