<?xml version="1.0" encoding="utf-8"?>
<!-- Generator: Adobe Illustrator 16.0.0, SVG Export Plug-In . SVG Version: 6.00 Build 0)  -->
<!DOCTYPE svg PUBLIC "-//W3C//DTD SVG 1.1//EN" "http://www.w3.org/Graphics/SVG/1.1/DTD/svg11.dtd">
<svg version="1.1" id="Layer_1" xmlns="http://www.w3.org/2000/svg" xmlns:xlink="http://www.w3.org/1999/xlink" x="0px" y="0px"
	 width="42px" height="42px" viewBox="0 0 42 42" enable-background="new 0 0 42 42" xml:space="preserve">
<g>
	<circle fill="#7AC143" stroke="#7AC143" stroke-miterlimit="10" cx="20.5" cy="20.5" r="20"/>
	<path fill="#FFFFFF" d="M17.636,20.552c0,0.512,0,0.842,0,0.993c0.923,0,1.848,0,2.771,0c-0.101,0.675-0.438,1.197-1.012,1.573
		c-0.324,0.226-0.7,0.374-1.123,0.45c-0.449,0.074-0.861,0.074-1.235,0c-0.4-0.076-0.774-0.237-1.124-0.486
		c-0.575-0.398-0.974-0.924-1.199-1.571c-0.225-0.674-0.225-1.336,0-1.985c0.174-0.474,0.425-0.885,0.75-1.235
		c0.424-0.425,0.937-0.699,1.535-0.825c0.499-0.125,0.999-0.112,1.499,0.037c0.425,0.126,0.799,0.351,1.124,0.674
		c0.099-0.125,0.256-0.294,0.469-0.506c0.21-0.211,0.369-0.356,0.468-0.43c0.025-0.049,0.099-0.132,0.225-0.244
		c0.125-0.112,0.211-0.206,0.262-0.28c-0.5-0.45-1.05-0.787-1.648-1.011c-1.149-0.425-2.298-0.436-3.446-0.037
		c-1.325,0.449-2.285,1.298-2.884,2.547c-0.225,0.4-0.375,0.825-0.45,1.274c-0.251,1.174-0.1,2.283,0.45,3.332
		c0.323,0.652,0.786,1.215,1.386,1.685c0.548,0.449,1.162,0.764,1.836,0.938c0.848,0.225,1.724,0.241,2.622,0.037
		c0.825-0.199,1.522-0.562,2.098-1.086c0.624-0.575,1.061-1.284,1.311-2.137c0.253-0.874,0.287-1.772,0.112-2.697
		c-0.525,0-2.124,0-4.795,0C17.636,19.708,17.636,20.039,17.636,20.552z M26.74,19.67V17.91h-1.274v1.761h-1.761v1.274h1.761v1.723
		h1.274v-1.723h1.76V19.67H26.74z"/>
</g>
</svg>
