<?xml version="1.0" encoding="utf-8"?>
<!-- Generator: Adobe Illustrator 16.0.0, SVG Export Plug-In . SVG Version: 6.00 Build 0)  -->
<!DOCTYPE svg PUBLIC "-//W3C//DTD SVG 1.1//EN" "http://www.w3.org/Graphics/SVG/1.1/DTD/svg11.dtd">
<svg version="1.1" id="Layer_1" xmlns="http://www.w3.org/2000/svg" xmlns:xlink="http://www.w3.org/1999/xlink" x="0px" y="0px"
	 width="42px" height="42px" viewBox="0 0 42 42" enable-background="new 0 0 42 42" xml:space="preserve">
<g>
	<circle fill="#7AC143" stroke="#7AC143" stroke-miterlimit="10" cx="20.5" cy="20.5" r="20"/>
	<path fill="#FFFFFF" d="M26.477,16.49h-1.574c-0.275,0-0.412-0.124-0.412-0.375v-1.611c0-0.273,0.137-0.412,0.412-0.412h1.574
		c0.273,0,0.412,0.139,0.412,0.412v1.611C26.889,16.366,26.752,16.49,26.477,16.49L26.477,16.49z M14.111,26.494v-6.782h1.648
		c-0.049,0.252-0.075,0.514-0.075,0.787c0,1.325,0.469,2.454,1.405,3.391c0.936,0.939,2.068,1.405,3.391,1.405
		c1.324,0,2.455-0.469,3.392-1.405c0.938-0.936,1.405-2.066,1.405-3.391c0-0.225-0.029-0.487-0.075-0.787h1.684v6.782
		c0,0.276-0.139,0.413-0.414,0.413H14.48C14.236,26.907,14.111,26.771,14.111,26.494L14.111,26.494z M23.704,20.5
		c0,0.875-0.313,1.625-0.938,2.248c-0.625,0.627-1.381,0.941-2.267,0.941c-0.887,0-1.642-0.314-2.266-0.941
		c-0.625-0.623-0.938-1.372-0.938-2.248c0-0.874,0.313-1.623,0.938-2.249c0.624-0.624,1.379-0.938,2.266-0.938
		c0.885,0,1.642,0.314,2.267,0.938C23.391,18.876,23.704,19.626,23.704,20.5z M14.111,12.518c-0.45,0-0.831,0.158-1.143,0.469
		c-0.313,0.313-0.468,0.682-0.468,1.106v12.815c0,0.43,0.156,0.792,0.468,1.106c0.313,0.316,0.693,0.472,1.143,0.472h12.777
		c0.45,0,0.83-0.155,1.143-0.472c0.313-0.313,0.469-0.677,0.469-1.106V14.093c0-0.424-0.155-0.792-0.469-1.106
		c-0.313-0.312-0.692-0.469-1.143-0.469H14.111z"/>
</g>
</svg>
