<?xml version="1.0" encoding="utf-8"?>
<!-- Generator: Adobe Illustrator 16.0.0, SVG Export Plug-In . SVG Version: 6.00 Build 0)  -->
<!DOCTYPE svg PUBLIC "-//W3C//DTD SVG 1.1//EN" "http://www.w3.org/Graphics/SVG/1.1/DTD/svg11.dtd">
<svg version="1.1" id="Layer_1" xmlns="http://www.w3.org/2000/svg" xmlns:xlink="http://www.w3.org/1999/xlink" x="0px" y="0px"
	 width="42px" height="42px" viewBox="0 0 42 42" enable-background="new 0 0 42 42" xml:space="preserve">
<g>
	<circle fill="none" stroke="#666666" stroke-miterlimit="10" cx="21" cy="21" r="20"/>
	<path fill="#666666" d="M26.977,16.99h-1.574c-0.275,0-0.412-0.124-0.412-0.375v-1.611c0-0.273,0.137-0.412,0.412-0.412h1.574
		c0.273,0,0.412,0.139,0.412,0.412v1.611C27.389,16.866,27.252,16.99,26.977,16.99L26.977,16.99z M14.611,26.995v-6.783h1.648
		c-0.049,0.252-0.075,0.514-0.075,0.787c0,1.325,0.469,2.455,1.405,3.391c0.936,0.939,2.068,1.405,3.391,1.405
		c1.324,0,2.455-0.469,3.392-1.405c0.938-0.936,1.405-2.066,1.405-3.391c0-0.225-0.028-0.486-0.075-0.787h1.684v6.783
		c0,0.275-0.139,0.412-0.414,0.412h-11.99C14.736,27.407,14.611,27.271,14.611,26.995L14.611,26.995z M24.204,21
		c0,0.875-0.313,1.625-0.938,2.249c-0.625,0.626-1.381,0.939-2.267,0.939c-0.887,0-1.642-0.313-2.266-0.939
		c-0.625-0.624-0.938-1.373-0.938-2.249c0-0.873,0.313-1.623,0.938-2.249c0.624-0.624,1.379-0.938,2.266-0.938
		c0.886,0,1.642,0.314,2.267,0.938C23.891,19.377,24.204,20.126,24.204,21z M14.611,13.018c-0.45,0-0.831,0.158-1.143,0.469
		C13.156,13.801,13,14.17,13,14.593v12.815c0,0.429,0.156,0.792,0.468,1.106s0.693,0.47,1.143,0.47h12.777
		c0.45,0,0.83-0.155,1.143-0.47C28.845,28.202,29,27.837,29,27.408V14.593c0-0.423-0.155-0.792-0.469-1.106
		c-0.313-0.311-0.692-0.469-1.143-0.469H14.611z"/>
</g>
</svg>
