<?xml version="1.0" encoding="utf-8"?>
<!-- Generator: Adobe Illustrator 16.0.0, SVG Export Plug-In . SVG Version: 6.00 Build 0)  -->
<!DOCTYPE svg PUBLIC "-//W3C//DTD SVG 1.1//EN" "http://www.w3.org/Graphics/SVG/1.1/DTD/svg11.dtd">
<svg version="1.1" id="Layer_1" xmlns="http://www.w3.org/2000/svg" xmlns:xlink="http://www.w3.org/1999/xlink" x="0px" y="0px"
	 width="42px" height="42px" viewBox="0 0 42 42" enable-background="new 0 0 42 42" xml:space="preserve">
<g>
	<circle fill="#7AC143" stroke="#7AC143" stroke-miterlimit="10" cx="20.5" cy="20.5" r="20"/>
	<path fill="#FFFFFF" d="M28.498,15.556c-0.599,0.251-1.235,0.412-1.91,0.486c0.723-0.425,1.211-1.023,1.457-1.799
		c-0.65,0.374-1.345,0.637-2.094,0.786c-0.654-0.674-1.453-1.011-2.397-1.011c-0.899,0-1.667,0.318-2.308,0.955
		c-0.637,0.637-0.955,1.405-0.955,2.305c0,0.25,0.025,0.5,0.075,0.749c-1.348-0.075-2.603-0.412-3.765-1.011
		c-1.161-0.599-2.153-1.399-2.978-2.397c-0.3,0.5-0.45,1.049-0.45,1.648c0,1.149,0.486,2.061,1.46,2.735
		c-0.524-0.025-1.024-0.162-1.499-0.413v0.037c0,0.775,0.25,1.461,0.75,2.061c0.499,0.601,1.124,0.976,1.873,1.124
		c-0.276,0.1-0.562,0.148-0.862,0.148c-0.2,0-0.4-0.027-0.6-0.078c0.2,0.653,0.581,1.188,1.143,1.614
		c0.562,0.427,1.204,0.651,1.929,0.671c-1.199,0.929-2.56,1.389-4.083,1.389c-0.275,0-0.537-0.011-0.786-0.036
		c1.523,0.975,3.196,1.46,5.02,1.46c1.447,0,2.778-0.281,3.986-0.842c1.214-0.562,2.197-1.292,2.959-2.192
		c0.765-0.899,1.349-1.895,1.76-2.981c0.412-1.086,0.618-2.192,0.618-3.315c0-0.125,0-0.261,0-0.412l0,0
		C27.498,16.767,28.049,16.206,28.498,15.556L28.498,15.556z"/>
</g>
</svg>
