<?xml version="1.0" encoding="utf-8"?>
<!-- Generator: Adobe Illustrator 16.0.0, SVG Export Plug-In . SVG Version: 6.00 Build 0)  -->
<!DOCTYPE svg PUBLIC "-//W3C//DTD SVG 1.1//EN" "http://www.w3.org/Graphics/SVG/1.1/DTD/svg11.dtd">
<svg version="1.1" id="Layer_1" xmlns="http://www.w3.org/2000/svg" xmlns:xlink="http://www.w3.org/1999/xlink" x="0px" y="0px"
	 width="42px" height="42px" viewBox="0 0 42 42" enable-background="new 0 0 42 42" xml:space="preserve">
<g>
	<circle fill="none" stroke="#666666" stroke-miterlimit="10" cx="21" cy="21" r="20"/>
	<path fill="#666666" d="M29,16.057c-0.601,0.251-1.236,0.412-1.912,0.486c0.724-0.425,1.211-1.023,1.46-1.799
		c-0.649,0.374-1.347,0.637-2.096,0.786c-0.652-0.674-1.451-1.011-2.398-1.011c-0.899,0-1.668,0.317-2.306,0.955
		c-0.637,0.637-0.954,1.404-0.954,2.305c0,0.251,0.024,0.5,0.074,0.749c-1.348-0.075-2.603-0.412-3.765-1.011
		c-1.162-0.6-2.153-1.399-2.979-2.398c-0.299,0.501-0.449,1.05-0.449,1.648c0,1.149,0.486,2.061,1.461,2.735
		c-0.524-0.025-1.024-0.162-1.499-0.413v0.037c0,0.774,0.25,1.462,0.749,2.061c0.5,0.601,1.125,0.976,1.874,1.124
		c-0.276,0.101-0.563,0.148-0.862,0.148c-0.199,0-0.399-0.023-0.6-0.075c0.2,0.65,0.58,1.187,1.143,1.611
		c0.562,0.427,1.204,0.651,1.929,0.675c-1.198,0.925-2.561,1.386-4.083,1.386c-0.275,0-0.537-0.011-0.786-0.035
		c1.523,0.973,3.197,1.459,5.021,1.459c1.448,0,2.778-0.281,3.988-0.842c1.212-0.562,2.198-1.293,2.96-2.193
		c0.764-0.898,1.35-1.892,1.761-2.978c0.412-1.087,0.618-2.192,0.618-3.316c0-0.124,0-0.262,0-0.412l0,0
		C27.999,17.268,28.55,16.706,29,16.057L29,16.057z"/>
</g>
</svg>
