<?xml version="1.0" encoding="utf-8"?>
<!-- Generator: Adobe Illustrator 19.1.0, SVG Export Plug-In . SVG Version: 6.00 Build 0)  -->
<svg version="1.1" id="Layer_1" xmlns="http://www.w3.org/2000/svg" xmlns:xlink="http://www.w3.org/1999/xlink" x="0px" y="0px"
	 width="32px" height="39.3px" viewBox="-4 7.5 32 39.3" style="enable-background:new -4 7.5 32 39.3;" xml:space="preserve">
<style type="text/css">
	.st0{clip-path:url(#SVGID_2_);fill:#FF6E00;}
	.st1{clip-path:url(#SVGID_4_);fill:none;stroke:#FFFFFF;stroke-miterlimit:10;}
	.st2{clip-path:url(#SVGID_6_);fill:#FFFFFF;}
	.st3{clip-path:url(#SVGID_8_);}
	.st4{fill:#808080;}
</style>
<g>
	<g>
		<g>
			<g>
				<g>
					<defs>
						<rect id="SVGID_1_" x="-4" y="7.5" width="32" height="40.2"/>
					</defs>
					<clipPath id="SVGID_2_">
						<use xlink:href="#SVGID_1_"  style="overflow:visible;"/>
					</clipPath>
					<path class="st0" d="M27.8,23.5C27.8,35.9,12,46.1,12,46.1S-3.8,35.7-3.8,23.5c0-8.7,7.1-15.8,15.8-15.8S27.8,14.8,27.8,23.5"
						/>
				</g>
			</g>
		</g>
	</g>
	<g>
		<g>
			<g>
				<g>
					<defs>
						<rect id="SVGID_3_" x="-4" y="7.5" width="32" height="40.2"/>
					</defs>
					<clipPath id="SVGID_4_">
						<use xlink:href="#SVGID_3_"  style="overflow:visible;"/>
					</clipPath>
					<path class="st1" d="M27.8,23.5C27.8,35.9,12,46.1,12,46.1S-3.8,35.7-3.8,23.5c0-8.7,7.1-15.8,15.8-15.8S27.8,14.8,27.8,23.5z"
						/>
				</g>
			</g>
		</g>
	</g>
	<g>
		<g>
			<g>
				<g>
					<defs>
						<rect id="SVGID_5_" x="-4" y="7.5" width="32" height="40.2"/>
					</defs>
					<clipPath id="SVGID_6_">
						<use xlink:href="#SVGID_5_"  style="overflow:visible;"/>
					</clipPath>
					<path class="st2" d="M24.1,23.7c0,6.7-5.4,12.1-12.1,12.1S-0.1,30.4-0.1,23.7S5.3,11.6,12,11.6S24.1,17,24.1,23.7"/>
				</g>
			</g>
		</g>
	</g>
	<g>
		<g>
			<g>
				<g>
					<defs>
						<rect id="SVGID_7_" x="-4" y="7.5" width="32" height="40.2"/>
					</defs>
					<clipPath id="SVGID_8_">
						<use xlink:href="#SVGID_7_"  style="overflow:visible;"/>
					</clipPath>
					<g class="st3">
						<g>
							<path class="st4" d="M11.9,16.8c0.9,0,1.5-0.7,1.5-1.5c0-0.9-0.7-1.5-1.5-1.5c-0.9,0-1.5,0.7-1.5,1.5
								C10.3,16.1,11,16.8,11.9,16.8z M12,28.3L12,28.3c-0.5,0-0.9,0.4-0.9,0.9v3.5c0,0.5,0.4,0.9,0.9,0.9l0,0
								c0.5,0,0.9-0.4,0.9-0.9v-3.5C12.9,28.8,12.5,28.3,12,28.3z M17.2,22.8c-0.4-1.5,0.1,0.3-0.7-3c-0.1-0.1-0.1-0.3-0.2-0.4
								l-2.2-1.8c0-0.1-0.3-0.1-0.3-0.1c-0.2,0-3.6,0-3.6,0c-0.2,0-0.3,0-0.5,0.2l-2.4,2.2c-0.1,0.1-0.2,0.3-0.2,0.4
								c-0.3,2.2-0.2,1.4-0.4,2.7c-0.1,0.7,0.7,1.1,1.2,0.7h2.5c0.1,0.3,0.3,0.6,0.5,0.7C9.8,24.8,9,25.9,9,27.2v3.3
								c0,0.4,0.3,0.7,0.7,0.7l0,0h0.4v-1.7c0-1,0.8-1.8,1.8-1.8l0,0c1,0,1.8,0.8,1.8,1.8v1.7h0.4l0,0c0.4,0,0.7-0.3,0.7-0.7l0,0
								v-3.3c0-1.2-0.7-2.3-1.9-2.8c0.2-0.2,0.4-0.4,0.5-0.7H16C16.7,23.9,17.4,23.4,17.2,22.8z M12,23.8L12,23.8
								c-0.4,0-0.8-0.4-0.8-0.8s0.4-0.8,0.8-0.8s0.8,0.4,0.8,0.8S12.4,23.8,12,23.8z M13.6,22.5c-0.2-0.7-0.9-1.1-1.6-1.1
								s-1.4,0.4-1.6,1.1H8.2c0.1-0.7,0.1-0.4,0.2-1.8l1.4-1.2v2.2c0.4-0.7,1.2-1.1,2.1-1.1l0,0c0.7,0,1.4,0.3,1.9,0.9v-2l1.2,1
								c0.4,1.8,0.2,0.9,0.5,2.1h-1.9C13.6,22.6,13.6,22.5,13.6,22.5z"/>
						</g>
					</g>
				</g>
			</g>
		</g>
	</g>
</g>
</svg>
