<?xml version="1.0" encoding="utf-8"?>
<!-- Generator: Adobe Illustrator 19.1.0, SVG Export Plug-In . SVG Version: 6.00 Build 0)  -->
<svg version="1.1" id="Layer_1" xmlns="http://www.w3.org/2000/svg" xmlns:xlink="http://www.w3.org/1999/xlink" x="0px" y="0px"
	 width="32px" height="39px" viewBox="-4 7.8 32 39" style="enable-background:new -4 7.8 32 39;" xml:space="preserve">
<style type="text/css">
	.st0{clip-path:url(#SVGID_2_);fill:#F37021;}
	.st1{clip-path:url(#SVGID_4_);fill:none;stroke:#FFFFFF;stroke-miterlimit:10;}
	.st2{clip-path:url(#SVGID_6_);fill:#FFFFFF;}
	.st3{clip-path:url(#SVGID_8_);fill:#808080;}
</style>
<g>
	<g>
		<g>
			<g>
				<g>
					<g>
						<defs>
							<rect id="SVGID_1_" x="-4" y="7.8" width="32" height="40.2"/>
						</defs>
						<clipPath id="SVGID_2_">
							<use xlink:href="#SVGID_1_"  style="overflow:visible;"/>
						</clipPath>
						<path class="st0" d="M27.8,23.8c0,12.4-15.9,22.5-15.9,22.5S-3.9,36-3.9,23.8c0-8.8,7.1-15.9,15.8-15.9S27.8,15,27.8,23.8"/>
					</g>
				</g>
			</g>
		</g>
	</g>
	<g>
		<g>
			<g>
				<g>
					<g>
						<defs>
							<rect id="SVGID_3_" x="-4" y="7.8" width="32" height="40.2"/>
						</defs>
						<clipPath id="SVGID_4_">
							<use xlink:href="#SVGID_3_"  style="overflow:visible;"/>
						</clipPath>
						<path class="st1" d="M27.8,23.8c0,12.4-15.9,22.5-15.9,22.5S-3.9,36-3.9,23.8c0-8.8,7.1-15.9,15.8-15.9S27.8,15,27.8,23.8z"/>
					</g>
				</g>
			</g>
		</g>
	</g>
	<g>
		<g>
			<g>
				<g>
					<g>
						<defs>
							<rect id="SVGID_5_" x="-4" y="7.8" width="32" height="40.2"/>
						</defs>
						<clipPath id="SVGID_6_">
							<use xlink:href="#SVGID_5_"  style="overflow:visible;"/>
						</clipPath>
						<path class="st2" d="M24.1,23.9C24.1,30.6,18.7,36,12,36S-0.1,30.6-0.1,23.9S5.3,11.8,12,11.8S24.1,17.2,24.1,23.9"/>
					</g>
				</g>
			</g>
		</g>
		<g>
			<g>
				<g>
					<g>
						<defs>
							<rect id="SVGID_7_" x="-4" y="7.8" width="32" height="40.2"/>
						</defs>
						<clipPath id="SVGID_8_">
							<use xlink:href="#SVGID_7_"  style="overflow:visible;"/>
						</clipPath>
						<path class="st3" d="M20.5,19.4c-0.1,0-0.2,0-0.2,0l-0.9,0.2l-1-2.4c-0.3-0.7-1.1-1.2-1.8-1.2H7.5c-0.8,0-1.5,0.5-1.8,1.2
							l-1,2.4l-0.9-0.2c-0.1,0-0.2,0-0.2,0c-0.5,0-0.8,0.3-0.8,0.8v0.5c0,0.5,0.5,1,1,1h0.1l-0.2,0.4c-0.2,0.6-0.5,1.7-0.5,2.4v4.7
							c0,0.5,0.5,1,1,1h1.3c0.5,0,1-0.5,1-1v-1.1h11.1v1.1c0,0.5,0.5,1,1,1h1.3c0.5,0,1-0.5,1-1v-4.7c0-0.7-0.2-1.8-0.5-2.4
							l-0.2-0.4h0.2c0.5,0,1-0.5,1-1v-0.5C21.3,19.7,21,19.4,20.5,19.4z M5.3,21.2l1.4-3.6c0.2-0.4,0.7-0.8,1.1-0.8H16
							c0.5,0,0.9,0.3,1.1,0.8l1.4,3.6c0.2,0.4-0.1,0.8-0.5,0.8H5.7C5.4,22,5.1,21.7,5.3,21.2z M8.6,25.8c0,0.2-0.2,0.4-0.4,0.4H5.4
							C5.2,26.2,5,26,5,25.8v-1.4C5,24.2,5.2,24,5.4,24h2.8c0.2,0,0.4,0.2,0.4,0.4V25.8z M18.9,25.8c0,0.2-0.2,0.4-0.4,0.4h-2.8
							c-0.2,0-0.4-0.2-0.4-0.4v-1.4c0-0.2,0.2-0.4,0.4-0.4h2.8c0.2,0,0.4,0.2,0.4,0.4V25.8L18.9,25.8z"/>
					</g>
				</g>
			</g>
		</g>
	</g>
</g>
</svg>
