<?xml version="1.0" encoding="utf-8"?>
<!-- Generator: Adobe Illustrator 16.0.0, SVG Export Plug-In . SVG Version: 6.00 Build 0)  -->
<!DOCTYPE svg PUBLIC "-//W3C//DTD SVG 1.1//EN" "http://www.w3.org/Graphics/SVG/1.1/DTD/svg11.dtd">
<svg version="1.1" id="Layer_1" xmlns="http://www.w3.org/2000/svg" xmlns:xlink="http://www.w3.org/1999/xlink" x="0px" y="0px"
	 width="30px" height="600px" viewBox="0 0 30 600" enable-background="new 0 0 30 600" xml:space="preserve">
<g>
	<g>
		<path fill="#ff6e00" d="M27.391,0H2.609C1.17,0,0,1.149,0,2.565V21.16c0,0.354,0.292,0.642,0.652,0.642h13.696v3.205h-3.261
			c-0.36,0-0.652,0.288-0.652,0.641c0,0.355,0.292,0.642,0.652,0.642h7.827c0.359,0,0.652-0.287,0.652-0.642
			c0-0.353-0.293-0.641-0.652-0.641h-3.261v-3.205h13.696c0.359,0,0.651-0.287,0.651-0.642V2.565C30,1.149,28.831,0,27.391,0z
			 M1.304,2.565c0-0.708,0.585-1.283,1.305-1.283h24.782c0.72,0,1.305,0.575,1.305,1.283v14.747H1.304V2.565z M28.696,20.519H1.304
			v-1.924h27.392V20.519z"/>
	</g>
</g>
<g>
	<g>
		<path fill="#ff6e00" d="M25.025,72.91l-7.501-2.831l5.297-5.251c0.029-0.029,0.056-0.062,0.078-0.097l3.022-4.563
			c0.16-0.242,0.128-0.561-0.078-0.764l-6.63-6.571c-0.206-0.204-0.528-0.237-0.771-0.078l-4.605,2.993
			c-0.036,0.024-0.068,0.05-0.098,0.079L3.132,66.339c-0.842,0.835-0.842,2.193,0,3.027l6.026,5.973
			c0.422,0.417,0.976,0.626,1.528,0.626c0.208,0,0.416-0.029,0.616-0.089l10.99,4.146c0.443,0.168,0.908,0.252,1.369,0.252
			c0.535,0,1.068-0.112,1.57-0.336c0.936-0.416,1.653-1.168,2.018-2.118C28.002,75.859,27.004,73.656,25.025,72.91z M18.697,54.044
			l5.924,5.87l-0.536,0.806l-6.201-6.146L18.697,54.044z M17.096,55.085L23.57,61.5l-1.37,2.067l-7.189-7.125L17.096,55.085z
			 M10.027,74.478l-6.026-5.972c-0.363-0.36-0.363-0.945,0-1.305l10.281-10.189l7.343,7.278L11.345,74.478
			C10.981,74.839,10.39,74.839,10.027,74.478z M26.099,77.387c-0.249,0.646-0.735,1.159-1.372,1.44
			c-0.637,0.284-1.346,0.303-1.999,0.058l-10.207-3.851l4.049-4.012l8.019,3.024C25.933,74.556,26.611,76.054,26.099,77.387z
			 M21.367,73.857l-2.649-1.065c-0.8-0.323-1.715,0.062-2.042,0.854c-0.323,0.793,0.063,1.701,0.864,2.024l2.647,1.066
			c0.193,0.076,0.392,0.114,0.588,0.114c0.62,0,1.207-0.366,1.455-0.969C22.553,75.086,22.168,74.18,21.367,73.857z M21.375,75.538
			c-0.066,0.158-0.189,0.281-0.348,0.347c-0.159,0.067-0.334,0.069-0.494,0.004l-2.647-1.065c-0.33-0.133-0.488-0.507-0.355-0.833
			c0.103-0.248,0.343-0.399,0.599-0.399c0.081,0,0.162,0.016,0.243,0.047l2.646,1.066C21.349,74.837,21.508,75.21,21.375,75.538z
			 M10.979,64.656c-0.18-0.178-0.472-0.178-0.651,0l-3.52,3.488c-0.18,0.179-0.18,0.468,0,0.646c0.09,0.089,0.208,0.133,0.326,0.133
			s0.235-0.044,0.326-0.133l3.52-3.488C11.16,65.123,11.16,64.834,10.979,64.656z M11.958,65.625c-0.181-0.179-0.472-0.178-0.652,0
			l-3.52,3.488c-0.179,0.178-0.179,0.468,0,0.646c0.09,0.089,0.208,0.134,0.327,0.134c0.118,0,0.235-0.045,0.325-0.134l3.521-3.488
			C12.138,66.093,12.138,65.803,11.958,65.625z M12.935,66.593c-0.18-0.178-0.472-0.178-0.651,0l-3.52,3.488
			c-0.18,0.179-0.18,0.468,0,0.646c0.09,0.09,0.208,0.135,0.326,0.135s0.236-0.045,0.326-0.135l3.52-3.488
			C13.114,67.062,13.114,66.773,12.935,66.593z M13.261,67.563l-3.52,3.488c-0.18,0.178-0.18,0.468,0,0.646
			c0.09,0.089,0.208,0.133,0.326,0.133c0.118,0,0.236-0.044,0.326-0.133l3.52-3.488c0.18-0.18,0.18-0.468,0-0.646
			C13.732,67.384,13.441,67.384,13.261,67.563z"/>
	</g>
</g>
<g>
	<g>
		<path fill="#ff6e00" d="M14.102,110.372c-0.456,0.266-1.143,0.667-1.143,1.5c0,0.323,0.267,0.585,0.596,0.585
			c0.328,0,0.595-0.262,0.595-0.585c0-0.141,0.147-0.252,0.56-0.494c0.455-0.267,1.142-0.669,1.142-1.5
			c0-0.83-0.688-1.233-1.142-1.498c-0.413-0.242-0.56-0.353-0.56-0.494c0-0.14,0.146-0.25,0.56-0.493
			c0.455-0.265,1.143-0.667,1.143-1.498c0-0.324-0.267-0.586-0.596-0.586s-0.595,0.262-0.595,0.586c0,0.14-0.146,0.25-0.56,0.492
			c-0.456,0.266-1.143,0.668-1.143,1.499c0,0.83,0.687,1.233,1.143,1.499c0.413,0.243,0.56,0.353,0.56,0.493
			C14.661,110.019,14.515,110.13,14.102,110.372z M8.706,111.846c-0.466,0.321-1.104,0.763-1.104,1.656
			c0,0.323,0.267,0.584,0.595,0.584c0.33,0,0.596-0.262,0.596-0.584c0-0.261,0.164-0.397,0.598-0.698
			c0.465-0.323,1.103-0.764,1.103-1.656c0-0.893-0.638-1.335-1.103-1.658c-0.435-0.301-0.598-0.438-0.598-0.698
			c0-0.261,0.164-0.399,0.598-0.7c0.465-0.322,1.103-0.764,1.103-1.657c0-0.323-0.266-0.584-0.595-0.584
			c-0.329,0-0.595,0.261-0.595,0.584c0,0.261-0.164,0.4-0.598,0.7c-0.466,0.322-1.104,0.764-1.104,1.657
			c0,0.892,0.638,1.333,1.103,1.656c0.435,0.301,0.599,0.439,0.599,0.7C9.304,111.407,9.14,111.545,8.706,111.846z M19.42,111.846
			c-0.465,0.321-1.104,0.763-1.104,1.656c0,0.323,0.267,0.584,0.595,0.584c0.33,0,0.595-0.262,0.595-0.584
			c0-0.261,0.165-0.397,0.599-0.698c0.465-0.323,1.104-0.764,1.104-1.656c0-0.893-0.639-1.335-1.104-1.658
			c-0.435-0.301-0.599-0.438-0.599-0.698c0-0.261,0.165-0.399,0.599-0.7c0.466-0.322,1.104-0.764,1.104-1.657
			c0-0.323-0.266-0.584-0.596-0.584c-0.327,0-0.595,0.261-0.595,0.584c0,0.261-0.164,0.4-0.598,0.7
			c-0.466,0.322-1.104,0.764-1.104,1.657c0,0.892,0.638,1.333,1.103,1.656c0.435,0.301,0.599,0.439,0.599,0.7
			C20.018,111.407,19.854,111.545,19.42,111.846z M27.5,118.397c0-1.13-0.935-2.049-2.084-2.049c-1.041,0-1.906,0.763-2.057,1.756
			h-4.496c-0.765-0.939-1.508-1.065-2.169-1.169c-0.463-0.071-0.861-0.135-1.345-0.478c-1.868-1.325-7.629-1.974-10.293,0.647
			c-2.067,2.033-1.5,4.526-0.818,5.76H3.096c-0.267,0-0.5,0.173-0.573,0.427c-0.072,0.252,0.035,0.521,0.263,0.658l3.33,1.994
			c1.031,0.616,2.213,0.941,3.418,0.941h10.229c1.348,0,2.647-0.4,3.754-1.157l2.627-1.797c0.212-0.146,0.305-0.412,0.227-0.655
			c-0.076-0.245-0.306-0.41-0.567-0.41h-5.667c0.171-0.54,0.178-1.173,0.057-1.834h3.161c0.145,0.992,1.015,1.757,2.062,1.757
			c1.149,0,2.084-0.919,2.084-2.049c0-0.427-0.133-0.833-0.376-1.171C27.367,119.23,27.5,118.824,27.5,118.397z M5.897,117.933
			c0.568-0.559,1.318-0.931,2.144-1.161c0.067,0.066,1.602,1.625,1.602,3.088c0,0.325,0.266,0.586,0.595,0.586
			c0.329,0,0.595-0.261,0.595-0.586c0-1.34-0.857-2.618-1.439-3.335c1.172-0.121,2.375-0.024,3.368,0.186
			c0.026,0.032,0.046,0.067,0.08,0.094c0.02,0.016,1.95,1.56,1.574,3.533c-0.061,0.318,0.152,0.625,0.475,0.683
			c0.037,0.007,0.075,0.011,0.11,0.011c0.281,0,0.531-0.195,0.584-0.477c0.216-1.131-0.098-2.128-0.535-2.908
			c0.551,0.294,1.045,0.383,1.458,0.447c0.621,0.098,1.029,0.161,1.575,0.932c1.044,1.477,1.238,3.247,0.736,3.841H5.463
			c0.018-0.132-0.001-0.271-0.08-0.393C5.319,122.372,3.821,119.976,5.897,117.933z M23.905,124.036l-1.068,0.729
			c-0.908,0.622-1.969,0.949-3.074,0.949H9.534c-0.987,0-1.955-0.268-2.799-0.772l-1.516-0.906H23.905z M25.946,120.037
			c0.231,0.169,0.365,0.426,0.365,0.701c0,0.484-0.401,0.879-0.894,0.879c-0.491,0-0.893-0.395-0.893-0.879
			c0-0.058,0.007-0.118,0.019-0.174c0.036-0.173-0.009-0.351-0.122-0.488c-0.113-0.137-0.281-0.216-0.46-0.216h-4.097
			c-0.078-0.199-0.169-0.392-0.265-0.584h4.357c0.328,0,0.594-0.263,0.594-0.586c0-0.053-0.007-0.104-0.02-0.154
			c-0.003-0.038-0.006-0.087-0.006-0.118c0-0.487,0.409-0.899,0.893-0.899c0.493,0,0.894,0.395,0.894,0.878
			c0,0.276-0.133,0.532-0.365,0.701c-0.15,0.11-0.238,0.285-0.238,0.469C25.708,119.754,25.795,119.927,25.946,120.037z"/>
	</g>
</g>
<path fill-rule="evenodd" clip-rule="evenodd" fill="#ff6e00" d="M24.444,168.888h-2.779V158.51c0-0.302-0.249-0.546-0.555-0.546
	h-3.889c-0.307,0-0.557,0.244-0.557,0.546v10.378h-0.555v-7.646c0-0.904-0.749-1.639-1.667-1.639c-0.919,0-1.667,0.734-1.667,1.639
	v7.646h-2.596l0.908-3.127c0.02-0.068,0.018-0.138,0.01-0.206c0.436-0.365,0.748-0.872,0.857-1.459l0.508-2.749
	c0.105-0.568-0.051-1.149-0.427-1.592c-0.377-0.444-0.93-0.699-1.517-0.699H9.444H8.369c-0.587,0-1.141,0.254-1.518,0.699
	c-0.376,0.443-0.533,1.024-0.427,1.592l0.508,2.749c0.109,0.588,0.421,1.095,0.857,1.459c-0.008,0.068-0.01,0.138,0.01,0.206
	l0.908,3.127H5.555c-0.306,0-0.555,0.244-0.555,0.545v9.832c0,2.409,1.994,4.37,4.444,4.37h11.11c2.453,0,4.446-1.961,4.446-4.37
	v-9.832C25,169.132,24.75,168.888,24.444,168.888z M11.183,160.454c0.166,0.195,0.234,0.449,0.188,0.698l-0.509,2.749
	c-0.09,0.484-0.424,0.875-0.863,1.055v-4.807h0.52C10.777,160.149,11.02,160.26,11.183,160.454z M7.706,160.454
	c0.163-0.194,0.406-0.305,0.664-0.305h0.52v4.807c-0.439-0.18-0.773-0.57-0.863-1.055l-0.509-2.749
	C7.472,160.903,7.54,160.649,7.706,160.454z M9.819,166.156l-0.375,1.289l-0.375-1.289H9.819z M17.778,168.342h1.667
	c0.306,0,0.556-0.245,0.556-0.548c0-0.301-0.25-0.545-0.556-0.545h-1.667v-1.093h1.667c0.306,0,0.556-0.244,0.556-0.546
	c0-0.301-0.25-0.545-0.556-0.545h-1.667v-1.093h1.667c0.306,0,0.556-0.245,0.556-0.546c0-0.302-0.25-0.546-0.556-0.546h-1.667
	v-1.093h1.667c0.306,0,0.556-0.244,0.556-0.545c0-0.303-0.25-0.547-0.556-0.547h-1.667v-1.639h2.776v9.832h-2.776V168.342z
	 M14.444,160.695c0.307,0,0.556,0.246,0.556,0.547v3.823h-1.111v-3.823C13.889,160.94,14.137,160.695,14.444,160.695z
	 M13.889,166.156H15v2.732h-1.111V166.156z M23.889,179.265c0,1.808-1.497,3.277-3.335,3.277H9.444
	c-1.838,0-3.333-1.469-3.333-3.277v-9.285h17.777V179.265z"/>
<g>
	<g>
		<path fill="#ff6e00" d="M23.822,223.921h-7.639c0.018-0.404,0.072-1.008,0.21-1.753c7.616-0.775,8.559-10.403,8.604-10.909
			c0.006-0.063,0.002-0.125-0.012-0.185c-0.004-0.024-0.011-0.049-0.021-0.072c-0.046-0.127-0.136-0.238-0.266-0.309
			c-0.011-0.007-0.021-0.011-0.032-0.017c-0.123-0.058-0.256-0.071-0.378-0.044c-0.03,0.006-0.06,0.015-0.09,0.026
			c-0.016,0.007-0.034,0.014-0.05,0.022c-4.971,2.368-7.244,6.022-8.282,8.984c-0.733-2.415-3.094-7.449-10.196-8.46
			c-0.046-0.007-0.092-0.008-0.137-0.003h0c-0.068,0.005-0.134,0.027-0.196,0.056c-0.013,0.006-0.024,0.013-0.036,0.02
			c-0.057,0.031-0.11,0.068-0.155,0.118c-0.002,0.002-0.003,0.004-0.005,0.007c-0.001,0.002-0.004,0.003-0.006,0.004
			c-0.004,0.006-0.005,0.014-0.01,0.019c-0.04,0.049-0.068,0.104-0.089,0.162c-0.004,0.013-0.01,0.025-0.014,0.036
			c-0.018,0.062-0.025,0.127-0.02,0.192c0,0.014,0.004,0.026,0.005,0.039c0.004,0.025,0.004,0.052,0.011,0.077
			c0.023,0.084,2.391,8.223,9.988,9.577c-0.113,0.39-0.321,1.303-0.247,2.416H7.351c-0.325,0-0.588,0.259-0.588,0.578v4.019
			c0,2.581,1.13,4.957,3.083,6.596c-0.088,0.101-0.142,0.231-0.142,0.376v1.735c0,0.319,0.263,0.578,0.588,0.578h10.589
			c0.325,0,0.587-0.259,0.587-0.578v-1.735c0-0.13-0.043-0.252-0.118-0.349c1.938-1.627,3.061-4.013,3.061-6.623V224.5
			C24.411,224.181,24.148,223.921,23.822,223.921z M17.8,220.697c1.382-1.539,3.688-4.185,5.441-6.612
			C22.539,216.479,21.018,219.639,17.8,220.697z M22.713,212.807c-1.682,2.426-4.145,5.276-5.647,6.957
			C17.909,217.508,19.545,214.858,22.713,212.807z M7.056,213.797c1.587,1.383,4.033,3.584,6.684,6.205
			C10.17,218.797,8.105,215.855,7.056,213.797z M7.761,212.866c4.086,1.305,5.898,4.197,6.677,6.187
			C11.778,216.429,9.333,214.234,7.761,212.866z M23.234,228.518c0,2.697-1.377,5.118-3.685,6.475
			c-0.226,0.134-0.335,0.4-0.263,0.651c0.069,0.25,0.301,0.424,0.566,0.424h0.44v0.578H10.88v-0.578h0.502
			c0.264,0,0.497-0.173,0.567-0.424c0.07-0.251-0.039-0.517-0.265-0.651c-2.346-1.38-3.746-3.801-3.746-6.475v-3.439h7.006
			c0.272,1.073,0.865,2.221,2.062,3.224c0.109,0.092,0.246,0.138,0.381,0.138c0.166,0,0.33-0.068,0.447-0.203
			c0.21-0.243,0.181-0.607-0.066-0.815c-0.876-0.734-1.365-1.556-1.622-2.343h7.086V228.518z"/>
	</g>
</g>
<g>
	<g>
		<path fill="#ff6e00" d="M29.545,265.67h-6.817v-0.509c0-0.193-0.126-0.365-0.311-0.426l-1.455-0.479
			c-0.046-0.016-0.096-0.023-0.144-0.023h-1v-0.03c0-0.248-0.203-0.449-0.455-0.449h-1.484v-0.03c0-0.248-0.203-0.449-0.455-0.449
			H2.219c-1.224,0-2.219,0.983-2.219,2.192v3.225c0,1.028,0.719,1.893,1.685,2.129l-1.573,8.556
			c-0.051,0.272,0.024,0.549,0.203,0.761s0.442,0.334,0.721,0.334h4.025c0.651,0,1.182-0.524,1.182-1.168
			c0-0.618-0.487-1.125-1.1-1.167l0.805-4.377h1.78c0.152,0,0.294-0.077,0.378-0.203c0.085-0.125,0.1-0.286,0.04-0.424
			c-0.005-0.011-0.416-0.991-0.081-2.249h3.297c0.865,0,1.708-0.161,2.51-0.478l3.098-1.225v0.804h-0.515
			c-0.252,0-0.455,0.202-0.455,0.45c0,0.248,0.203,0.449,0.455,0.449h0.515v7.25h-0.03c-0.251,0-0.455,0.202-0.455,0.45
			c0,0.248,0.204,0.449,0.455,0.449h2.909c0.252,0,0.454-0.201,0.454-0.449c0-0.249-0.202-0.45-0.454-0.45h-0.03v-7.25h0.516
			c0.251,0,0.454-0.201,0.454-0.449c0-0.249-0.203-0.45-0.454-0.45h-0.516v-1.977h1c0.048,0,0.098-0.008,0.144-0.024l1.455-0.479
			c0.185-0.061,0.311-0.232,0.311-0.426v-0.509h6.817c0.252,0,0.455-0.202,0.455-0.449C30,265.872,29.797,265.67,29.545,265.67z
			 M7.122,272.86h-1.01l0.364-1.977h0.652C6.954,271.692,7.023,272.391,7.122,272.86z M10.666,269.984H6.097
			c-0.219,0-0.408,0.155-0.447,0.37l-1.499,8.149c-0.024,0.13,0.012,0.266,0.098,0.368c0.086,0.103,0.214,0.161,0.35,0.161h0.463
			c0.15,0,0.272,0.121,0.272,0.271c0,0.148-0.122,0.269-0.272,0.269H1.036c-0.004,0-0.014,0-0.023-0.011
			c-0.008-0.011-0.007-0.021-0.006-0.024l0.093-0.504h1.78c0.251,0,0.455-0.201,0.455-0.449c0-0.249-0.203-0.45-0.455-0.45H1.264
			l1.401-7.619c0.024-0.131-0.012-0.266-0.098-0.368s-0.214-0.162-0.348-0.162c-0.722,0-1.309-0.581-1.309-1.294v-3.225
			c0-0.713,0.587-1.293,1.309-1.293h8.447V269.984z M16.97,264.202v4.01l-3.436,1.359c-0.628,0.249-1.285,0.385-1.958,0.409v-5.807
			h5.394V264.202z M18.909,278.133h-1.03v-7.25h1.03V278.133z M18.909,269.984h-1.03v-1.459v-0.001v-3.873h1.03V269.984z
			 M21.817,266.755l-1.072,0.354h-0.927v-1.978h0.927l1.072,0.354V266.755z M9.667,268.487c0.25,0,0.455-0.202,0.455-0.45v-1.917
			c0-0.249-0.205-0.45-0.455-0.45s-0.455,0.201-0.455,0.45v1.917C9.212,268.286,9.417,268.487,9.667,268.487z M8.212,268.487
			c0.251,0,0.455-0.202,0.455-0.45v-1.917c0-0.249-0.203-0.45-0.455-0.45c-0.25,0-0.454,0.201-0.454,0.45v1.917
			C7.758,268.286,7.961,268.487,8.212,268.487z M6.758,268.487c0.251,0,0.454-0.202,0.454-0.45v-1.917
			c0-0.249-0.202-0.45-0.454-0.45s-0.454,0.201-0.454,0.45v1.917C6.304,268.286,6.506,268.487,6.758,268.487z"/>
	</g>
</g>
<g>
	<g>
		<path fill="#ff6e00" d="M26.671,327.744l-11.103-6.236v-0.076c0-0.598,0.307-1.183,0.867-1.646
			c0.611-0.507,0.894-1.279,0.754-2.063c-0.159-0.88-0.895-1.604-1.791-1.759c-0.656-0.114-1.323,0.061-1.829,0.478
			c-0.503,0.417-0.793,1.027-0.793,1.674c0,0.31,0.254,0.56,0.568,0.56c0.313,0,0.568-0.25,0.568-0.56
			c0-0.316,0.142-0.614,0.388-0.818c0.251-0.207,0.573-0.288,0.901-0.232c0.428,0.074,0.792,0.433,0.868,0.853
			c0.069,0.388-0.068,0.767-0.369,1.016c-0.818,0.68-1.27,1.567-1.27,2.5v0.076L3.33,327.744c-0.512,0.288-0.83,0.826-0.83,1.405
			c0,0.894,0.739,1.619,1.648,1.619h21.705c0.909,0,1.647-0.726,1.647-1.619C27.5,328.57,27.182,328.032,26.671,327.744z
			 M25.853,329.652H4.148c-0.282,0-0.512-0.226-0.512-0.503c0-0.179,0.1-0.346,0.257-0.436L15,322.474l11.107,6.24
			c0.156,0.09,0.256,0.257,0.256,0.436C26.364,329.427,26.135,329.652,25.853,329.652z"/>
	</g>
</g>
<g>
	<g>
		<path fill="#ff6e00" d="M19.595,370.711c-2.798,0-5.106,2.103-5.378,4.784h-3.894l-1.005-5.936
			c-0.039-0.224-0.217-0.398-0.445-0.437l-3.243-0.532c-0.294-0.051-0.574,0.148-0.622,0.438c-0.049,0.289,0.15,0.563,0.445,0.611
			l2.862,0.469l0.913,5.387H7.703c-0.152,0-0.297,0.064-0.4,0.174c-0.103,0.111-0.152,0.261-0.138,0.41l1.479,15.04
			c0.108,1.095,1.034,1.922,2.153,1.922h5.705c1.118,0,2.044-0.827,2.151-1.922l0.961-9.775c2.972-0.011,5.385-2.393,5.385-5.316
			C25,373.097,22.576,370.711,19.595,370.711z M17.578,391.016c-0.054,0.549-0.516,0.963-1.076,0.963h-5.705
			c-0.561,0-1.022-0.414-1.077-0.963l-1.422-14.457H19L17.578,391.016z M19.721,380.269l0.289-2.939l0.757,1.119
			c0.105,0.154,0.276,0.237,0.451,0.237c0.103,0,0.207-0.028,0.298-0.089c0.249-0.163,0.317-0.494,0.151-0.737l-1.082-1.598
			c-0.105-0.156-0.281-0.23-0.458-0.228c0.002-0.134-0.041-0.266-0.132-0.365c-0.103-0.109-0.247-0.174-0.4-0.174h-0.004
			c0.298,0,0.54-0.235,0.541-0.529l0.003-2.128c0.001-0.294-0.239-0.532-0.538-0.532c-0.001,0-0.001,0-0.001,0
			c-0.297,0-0.54,0.235-0.541,0.53l-0.004,2.129c0,0.294,0.242,0.53,0.54,0.53h-0.536c0-0.136-0.053-0.272-0.158-0.376l-1.622-1.594
			c-0.211-0.208-0.553-0.208-0.763,0c-0.212,0.206-0.212,0.544,0,0.75l1.239,1.22h-2.425c0.27-2.092,2.072-3.722,4.27-3.722
			c2.384,0,4.325,1.909,4.325,4.254C23.92,378.33,22.046,380.201,19.721,380.269z M10.409,388.846
			c0.03,0.272,0.265,0.474,0.537,0.474c0.019,0,0.04-0.001,0.059-0.003c0.298-0.034,0.511-0.296,0.478-0.588l-1.081-9.571
			c-0.032-0.289-0.296-0.499-0.598-0.469c-0.295,0.033-0.51,0.295-0.477,0.588L10.409,388.846z M22.748,374.138
			c-0.166-0.245-0.5-0.311-0.75-0.148l-1.621,1.064c-0.25,0.163-0.317,0.492-0.151,0.737c0.104,0.153,0.277,0.236,0.451,0.236
			c0.103,0,0.207-0.029,0.299-0.089l1.622-1.063C22.846,374.712,22.914,374.383,22.748,374.138z"/>
	</g>
</g>
<g>
	<g>
		<path fill="#ff6e00" d="M19.12,432.043c0.062-0.179,0.089-0.362,0.079-0.549c1.603-0.533,6.273-2.242,6.511-4.14
			c0.156-1.253-1-2.892-2.134-4.006s-2.798-2.252-4.073-2.097c-1.935,0.234-3.677,4.847-4.215,6.413
			c-0.188-0.008-0.372,0.019-0.551,0.075c-0.509-1.495-2.276-6.251-4.24-6.488c-1.271-0.156-2.94,0.982-4.073,2.097
			c-1.135,1.114-2.291,2.753-2.135,4.006c0.242,1.927,5.06,3.661,6.59,4.165c-0.062,0.18-0.089,0.363-0.079,0.55
			c-1.604,0.532-6.273,2.241-6.511,4.139c-0.156,1.254,1,2.892,2.135,4.006c1.063,1.046,2.596,2.111,3.833,2.111
			c0.081,0,0.161-0.005,0.24-0.015c1.927-0.233,3.662-4.811,4.207-6.394c0.026,0.002,0.052,0.008,0.078,0.008
			c0.168,0,0.331-0.033,0.486-0.085c0.515,1.511,2.278,6.233,4.235,6.471c0.078,0.01,0.158,0.015,0.239,0.015
			c1.238,0,2.771-1.065,3.834-2.111c1.134-1.114,2.29-2.752,2.134-4.006C25.469,434.28,20.649,432.546,19.12,432.043z
			 M19.625,422.228c0.734-0.085,2.066,0.658,3.244,1.817c1.179,1.157,1.938,2.47,1.848,3.189c-0.128,1.025-3.438,2.536-5.902,3.349
			c-0.017-0.018-0.021-0.041-0.039-0.058l-0.502-0.493c0.876-0.374,2.371-1.081,3.359-1.942c0.207-0.18,0.227-0.49,0.043-0.694
			c-0.183-0.203-0.499-0.222-0.705-0.041c-1.034,0.9-2.781,1.654-3.46,1.928l-0.354-0.349c0.635-0.982,1.92-2.833,2.696-3.374
			c0.225-0.157,0.278-0.464,0.118-0.686c-0.159-0.222-0.471-0.274-0.697-0.117c-0.935,0.653-2.226,2.523-2.841,3.465l-0.154-0.151
			c-0.018-0.018-0.042-0.022-0.06-0.038C17.046,425.61,18.582,422.354,19.625,422.228z M5.284,427.234
			c-0.091-0.72,0.669-2.032,1.847-3.189c1.178-1.159,2.515-1.903,3.245-1.817c1.082,0.132,2.696,3.631,3.497,6.072
			c0.004,0.012,0.013,0.021,0.018,0.032l-0.54,0.53c-0.324-0.771-1.118-2.506-2.106-3.603c-0.184-0.204-0.499-0.223-0.705-0.041
			c-0.207,0.18-0.226,0.49-0.042,0.693c1.146,1.271,2.069,3.668,2.079,3.692c0.001,0.005,0.006,0.006,0.008,0.011l-0.215,0.211
			c-0.88-0.534-3.094-1.978-3.697-2.815c-0.16-0.221-0.472-0.275-0.698-0.117c-0.225,0.157-0.278,0.464-0.119,0.686
			c0.733,1.015,2.976,2.457,3.789,2.961l-0.153,0.15c-0.011-0.005-0.02-0.014-0.031-0.018
			C8.974,429.886,5.416,428.299,5.284,427.234z M10.375,441.335c-0.729,0.092-2.067-0.658-3.245-1.815
			c-1.178-1.159-1.938-2.471-1.847-3.191c0.127-1.025,3.437-2.535,5.902-3.349c0.016,0.018,0.021,0.041,0.039,0.058l0.524,0.516
			c-0.882,0.416-2.478,1.24-3.806,2.34c-0.211,0.174-0.238,0.484-0.061,0.691c0.099,0.116,0.24,0.175,0.383,0.175
			c0.113,0,0.228-0.037,0.321-0.114c1.203-0.995,2.684-1.77,3.532-2.175c-0.007,0.034-0.302,1.433-1.647,3.214
			c-0.165,0.218-0.119,0.525,0.103,0.688c0.09,0.066,0.195,0.098,0.298,0.098c0.152,0,0.304-0.068,0.402-0.198
			c1.228-1.626,1.659-2.968,1.781-3.434l0.668,0.657c0.018,0.018,0.038,0.029,0.057,0.045
			C12.951,437.961,11.417,441.209,10.375,441.335z M14.429,434.798l-1.47-1.445c0,0,0,0-0.001-0.001l-1.026-1.009
			c-0.194-0.191-0.194-0.504,0-0.695l2.932-2.883c0.094-0.094,0.22-0.144,0.354-0.144s0.26,0.05,0.354,0.144l2.498,2.456
			c0.194,0.19,0.194,0.503,0,0.694l-2.933,2.883C14.947,434.984,14.618,434.984,14.429,434.798z M22.87,439.52
			c-1.178,1.157-2.511,1.906-3.244,1.815c-1.082-0.131-2.696-3.63-3.498-6.072c-0.004-0.012-0.013-0.02-0.018-0.03l0.552-0.543
			c0.354,0.756,1.261,2.562,2.519,4.032c0.099,0.115,0.239,0.175,0.383,0.175c0.114,0,0.229-0.038,0.321-0.115
			c0.212-0.175,0.239-0.485,0.062-0.692c-1.013-1.184-1.8-2.64-2.212-3.474c0.044,0.01,1.478,0.313,3.27,1.62
			c0.09,0.065,0.193,0.098,0.297,0.098c0.153,0,0.305-0.069,0.403-0.198c0.164-0.22,0.117-0.527-0.104-0.688
			c-2.007-1.466-3.611-1.784-3.68-1.797c-0.07-0.014-0.139-0.012-0.203,0.003l0.793-0.78c0.011,0.005,0.02,0.014,0.031,0.018
			c2.484,0.787,6.043,2.374,6.176,3.438C24.808,437.049,24.048,438.36,22.87,439.52z"/>
	</g>
</g>
<g>
	<g>
		<path fill="#ff6e00" d="M22.5,473.893h-15c-1.378,0-2.5,1.102-2.5,2.457v17.205c0,1.355,1.121,2.458,2.5,2.458v0.491
			c0,0.271,0.224,0.492,0.5,0.492c0.277,0,0.5-0.221,0.5-0.492v-0.491h13v0.491c0,0.271,0.225,0.492,0.5,0.492
			c0.277,0,0.501-0.221,0.501-0.492v-0.491c1.378,0,2.5-1.103,2.5-2.458V476.35C25,474.994,23.878,473.893,22.5,473.893z
			 M24,493.555c0,0.813-0.673,1.475-1.5,1.475h-15c-0.826,0-1.5-0.662-1.5-1.475V479.79h18V493.555z M24,478.808H6v-2.458
			c0-0.813,0.673-1.475,1.5-1.475h15c0.827,0,1.5,0.661,1.5,1.475V478.808z M15,493.555c3.584,0,6.499-2.866,6.499-6.391
			c0-3.523-2.915-6.391-6.499-6.391s-6.5,2.867-6.5,6.391C8.5,490.688,11.416,493.555,15,493.555z M15,481.757
			c3.032,0,5.5,2.426,5.5,5.407s-2.468,5.407-5.5,5.407c-3.033,0-5.5-2.426-5.5-5.407S11.967,481.757,15,481.757z M15,491.588
			c2.48,0,4.5-1.984,4.5-4.424s-2.02-4.425-4.5-4.425c-2.482,0-4.5,1.985-4.5,4.425S12.518,491.588,15,491.588z M15,483.723
			c1.93,0,3.5,1.544,3.5,3.441s-1.57,3.441-3.5,3.441s-3.5-1.544-3.5-3.441S13.07,483.723,15,483.723z M16.524,490.089
			c0.128,0,0.256-0.048,0.354-0.144c0.194-0.192,0.194-0.504,0-0.695c-1.17-1.149-1.17-3.021,0-4.171
			c0.194-0.192,0.194-0.503,0-0.695c-0.197-0.192-0.514-0.192-0.708,0c-1.559,1.533-1.559,4.028,0,5.562
			C16.269,490.041,16.397,490.089,16.524,490.089z M20.999,475.858c-0.551,0-1,0.44-1,0.983c0,0.541,0.449,0.982,1,0.982
			c0.553,0,1-0.441,1-0.982C21.999,476.299,21.552,475.858,20.999,475.858z M18,475.858c-0.276,0-0.5,0.22-0.5,0.491v0.983
			c0,0.271,0.224,0.491,0.5,0.491c0.275,0,0.5-0.22,0.5-0.491v-0.983C18.5,476.078,18.275,475.858,18,475.858z M16.499,475.858
			c-0.275,0-0.499,0.22-0.499,0.491v0.983c0,0.271,0.224,0.491,0.499,0.491c0.277,0,0.5-0.22,0.5-0.491v-0.983
			C16.999,476.078,16.776,475.858,16.499,475.858z"/>
	</g>
</g>
<g>
	<g>
		<path fill="#ff6e00" d="M21.188,538.689c-2.652,0-4.81,2.128-4.81,4.742c0,2.617,2.158,4.745,4.81,4.745
			c2.654,0,4.813-2.128,4.813-4.745C26,540.817,23.842,538.689,21.188,538.689z M21.188,547.253c-2.134,0-3.872-1.714-3.872-3.821
			c0-2.105,1.738-3.819,3.872-3.819c2.136,0,3.875,1.714,3.875,3.819C25.063,545.539,23.324,547.253,21.188,547.253z M22.653,541.09
			c-0.221-0.134-0.509-0.066-0.646,0.15l-2.436,3.899c-0.137,0.218-0.069,0.503,0.153,0.637c0.076,0.046,0.161,0.068,0.245,0.068
			c0.157,0,0.311-0.078,0.4-0.22l2.437-3.898C22.941,541.51,22.874,541.224,22.653,541.09z M7.81,544.918l-0.071-0.043
			c-0.389-0.24-0.66-0.616-0.763-1.058c-0.103-0.442-0.026-0.897,0.217-1.28c0.137-0.216,0.071-0.5-0.148-0.636
			c-0.22-0.137-0.509-0.07-0.646,0.146c-0.376,0.593-0.496,1.294-0.336,1.977s0.578,1.263,1.179,1.634l0.071,0.044
			c0.078,0.047,0.164,0.071,0.249,0.071c0.156,0,0.309-0.078,0.397-0.218C8.096,545.34,8.029,545.054,7.81,544.918z M17.94,528.956
			l-0.072-0.045c-0.219-0.134-0.509-0.068-0.646,0.147c-0.137,0.217-0.071,0.501,0.149,0.638l0.071,0.044
			c0.804,0.495,1.048,1.545,0.545,2.337c-0.138,0.216-0.071,0.502,0.148,0.636c0.078,0.049,0.164,0.07,0.25,0.07
			c0.154,0,0.307-0.076,0.396-0.217C19.56,531.343,19.181,529.723,17.94,528.956z M16.566,539.762L16.566,539.762l3.904-6.152
			c0.659-1.038,0.868-2.268,0.59-3.46c-0.279-1.193-1.011-2.208-2.064-2.857l-0.071-0.045c-0.742-0.457-1.592-0.699-2.462-0.699
			c-1.614,0-3.089,0.805-3.943,2.152l-7.81,12.306c-0.659,1.037-0.868,2.266-0.589,3.459s1.011,2.209,2.064,2.858l0.071,0.044
			c0.741,0.458,1.592,0.698,2.462,0.698c1.614,0,3.088-0.804,3.944-2.152L16.566,539.762
			C16.566,539.762,16.566,539.762,16.566,539.762z M11.868,545.423c-0.683,1.077-1.861,1.72-3.15,1.72
			c-0.694,0-1.374-0.193-1.965-0.559l-0.071-0.044c-0.84-0.519-1.426-1.329-1.648-2.283c-0.222-0.951-0.055-1.932,0.471-2.761
			l3.656-5.761l6.363,3.929L11.868,545.423z M9.657,534.951l3.657-5.76c0.683-1.076,1.86-1.719,3.149-1.719
			c0.693,0,1.373,0.192,1.965,0.558l0.072,0.044c0.84,0.519,1.426,1.329,1.648,2.282c0.223,0.952,0.056,1.934-0.472,2.762
			l-3.655,5.761L9.657,534.951z"/>
	</g>
</g>
<path fill="#ff6e00" d="M26.866,585.389c-0.329,0-0.597,0.263-0.597,0.586v3.483h-1.213v-2.942c0-0.324-0.267-0.587-0.596-0.587
	h-2.77l-0.516-1.69c-0.076-0.248-0.309-0.418-0.573-0.418h-4.216v-1.485h2.656c0.329,0,0.596-0.264,0.596-0.587v-1.959
	c0-0.324-0.268-0.587-0.596-0.587h-8.555c-0.329,0-0.598,0.263-0.598,0.587v1.959c0,0.325,0.269,0.587,0.598,0.587h2.655v1.485
	H6.991c-0.22,0-0.421,0.118-0.525,0.307l-0.998,1.802H3.132c-0.33,0-0.596,0.263-0.596,0.587v2.943H1.194v-4.196
	c0-0.324-0.267-0.586-0.597-0.586c-0.329,0-0.597,0.262-0.597,0.586v12.13c0,0.323,0.268,0.588,0.597,0.588
	c0.331,0,0.597-0.265,0.597-0.588v-4.196h1.342v3.108c0,0.322,0.267,0.586,0.596,0.586h4.97l2.274,2.884
	c0.112,0.142,0.288,0.226,0.471,0.226h13.611c0.33,0,0.596-0.262,0.596-0.587v-6.217h1.213v3.483c0,0.323,0.269,0.587,0.597,0.587
	c1.729,0,3.134-1.382,3.134-3.081v-5.717C30,586.771,28.595,585.389,26.866,585.389z M1.194,592.022v-1.391h1.342v1.391H1.194z
	 M11.083,580.376h7.359v0.786h-7.359V580.376z M14.334,582.335h0.855v1.485h-0.855V582.335z M3.73,587.103h0.424v8.614H3.73V587.103
	z M8.868,595.943c-0.113-0.144-0.287-0.227-0.472-0.227H5.348v-8.614h0.475c0.219,0,0.42-0.117,0.524-0.306l0.997-1.804h12.812
	l0.516,1.691c0.076,0.248,0.309,0.418,0.572,0.418h1.072v11.725H11.14L8.868,595.943z M23.863,598.827H23.51v-11.725h0.353V598.827z
	 M25.055,592.022v-1.391h1.213v1.391H25.055z M28.805,594.186c0,0.847-0.564,1.566-1.342,1.814v-9.346
	c0.778,0.249,1.342,0.968,1.342,1.814V594.186z"/>
</svg>
