<?xml version="1.0" encoding="utf-8"?>
<!-- Generator: Adobe Illustrator 19.1.0, SVG Export Plug-In . SVG Version: 6.00 Build 0)  -->
<svg version="1.1" id="_x2018_ëîé_x5F_1" xmlns="http://www.w3.org/2000/svg" xmlns:xlink="http://www.w3.org/1999/xlink"
	 x="0px" y="0px" viewBox="0 0 52.6 42.1" style="enable-background:new 0 0 52.6 42.1;" xml:space="preserve">
<style type="text/css">
	.st0{fill:#FFFFFF;}
</style>
<g>
	<path class="st0" d="M40.7,13.1c-6.5,0-11.8,5.3-11.8,11.8s5.3,11.8,11.8,11.8S52.6,31.5,52.6,25S47.3,13.1,40.7,13.1z M40.7,34.2
		c-5.1,0-9.2-4.1-9.2-9.2s4.1-9.2,9.2-9.2s9.2,4.1,9.2,9.2S45.8,34.2,40.7,34.2z"/>
	<path class="st0" d="M46.7,21.2c-0.6-0.4-1.4-0.2-1.8,0.4l-4.2,6.2l-4.2-6.2c-0.4-0.6-1.2-0.8-1.8-0.4c-0.6,0.4-0.8,1.2-0.4,1.8
		l5.3,7.9c0.2,0.4,0.7,0.6,1.1,0.6c0.4,0,0.8-0.2,1.1-0.6l5.3-7.9C47.5,22.5,47.3,21.7,46.7,21.2z"/>
	<path class="st0" d="M2.6,9.2h13.1v17.1h10.5V9.2h13.1v1.4c0.4,0,0.9-0.1,1.3-0.1c0.4,0,0.9,0,1.3,0.1V7.9c0-0.9-0.4-1.7-1.2-2.2
		L33,0.4C32.6,0.2,32.1,0,31.5,0h-21c-0.5,0-1,0.2-1.5,0.4L1.2,5.7C0.4,6.2,0,7,0,7.9v31.5c0,1.5,1.2,2.6,2.6,2.6h36.8
		c1.5,0,2.6-1.2,2.6-2.6H2.6V9.2z M26.3,2.6h5.3l5.9,3.9H26.3V2.6z M18.4,2.6h5.3v3.9h-5.3V2.6z M18.4,9.2h5.3v14.5h-5.3V9.2z
		 M10.5,2.6h5.3v3.9H4.6L10.5,2.6z"/>
</g>
</svg>
