<?xml version="1.0" encoding="utf-8"?>
<!-- Generator: Adobe Illustrator 19.1.0, SVG Export Plug-In . SVG Version: 6.00 Build 0)  -->
<svg version="1.1" id="Layer_1" xmlns="http://www.w3.org/2000/svg" xmlns:xlink="http://www.w3.org/1999/xlink" x="0px" y="0px"
	 viewBox="0 0 57 52.6" style="enable-background:new 0 0 57 52.6;" xml:space="preserve">
<style type="text/css">
	.st0{fill:#FFFFFF;}
</style>
<g>
	<g>
		<path class="st0" d="M50.4,39.4c-0.6,0-1.1,0.1-1.7,0.2l-0.4-1.1c3-0.5,6.2,0.9,6.2,0.9c0.2,0.1,0.5,0.1,0.7,0
			c0.2-0.1,0.4-0.3,0.4-0.6c0-0.3,0.8-6.8-5.2-13.2c-3.8-4.1-6.8-6.1-8.5-7c0.3-0.3,0.7-0.6,0.9-1c0.3-0.6,0.3-1.2,0-1.8
			c-0.9-2.1-2.8-3.3-4.3-3.8c-1-0.3-2.2-0.5-2.8-0.7l-1.2-5.4c0.1-0.1,0.2-0.2,0.3-0.4l1.8-3c0.5-0.9,0.2-2-0.6-2.6l-2.8,0.5l-1.8,3
			c-0.3,0.4-0.3,0.9-0.2,1.4c0.1,0.5,0.4,0.9,0.8,1.1l0.3,0.2c0.3,0.2,0.6,0.2,0.8,0.3l1.1,5.1c-0.4,0.2-0.9,0.6-1.2,1.1
			c-0.3,0.5-0.3,1-0.1,1.6c0.2,0.5,0.9,1.9,2.4,4.6c2.2,4,5.8,10.7,6,12.4c0.3,2.4-1.3,6.2-3.7,7.3c-2,1-8.3,0.8-10.5,0.7
			c0,0-3.3-0.2-5.3-2.6c-1.6-1.9-1-2.9-0.2-3.7c0,0,0,0,0,0c1-1,1.8-2.7,1.8-4.2c0-0.5-0.1-0.9-0.5-1.3c-0.8-0.8-2.2-0.9-2.3-0.9
			H2.8c-0.3,0-0.6,0.2-0.7,0.5c-0.1,0.3,0,0.6,0.2,0.8c0.6,0.6,2.1,2.4,2.1,4.2c0,2.1-1.3,3.3-1.4,3.3c0,0,0,0,0,0c0,0,0,0,0,0
			l-2.7,2.9c-0.3,0.3-0.3,0.8,0,1.1c0.1,0.1,0.3,0.2,0.5,0.2c0.2,0,0.4-0.1,0.5-0.2l2.3-2.5l4.8,2.8C5.8,40.6,3.9,43,3.9,46
			c0,3.6,2.9,6.6,6.6,6.6c3.6,0,6.6-3,6.6-6.6c0-0.5,0-0.9-0.1-1.3l4.4,2.5c2.1,1.2,4.5,1.9,6.8,2.1c2.7,0.2,6.5,0.3,9.6-0.4
			c5.1-1.1,5.1-1.5,5.2-2.1c0-0.2,0-0.3-0.1-0.4c-0.1-0.8-0.4-4.8,3.3-7.1c0.2-0.1,0.4-0.3,0.7-0.4l0.5,1.2
			c-2.1,1.1-3.5,3.3-3.5,5.8c0,3.6,2.9,6.6,6.6,6.6c3.6,0,6.6-3,6.6-6.6C57,42.3,54.1,39.4,50.4,39.4z M49.2,44.8l0.5,1.4
			c0.2,0.4,0.6,0.6,1,0.4c0.4-0.2,0.6-0.6,0.4-1l-0.5-1.4c0.8,0.1,1.5,0.8,1.5,1.7c0,0.9-0.7,1.7-1.7,1.7s-1.7-0.8-1.7-1.7
			C48.8,45.5,48.9,45.1,49.2,44.8z M33.5,4.8C33.5,4.8,33.5,4.8,33.5,4.8c-0.1,0-0.2,0.1-0.3,0.2c-0.1,0-0.1,0-0.2,0l-0.3-0.2
			c-0.1-0.1-0.1-0.2-0.2-0.2c0-0.1,0-0.2,0-0.3l1.8-3c0.1-0.1,0.2-0.1,0.2-0.2c0,0,0.1,0,0.1,0c0.1,0,0.1,0,0.2,0.1l0.3,0.2
			c0.2,0.1,0.2,0.3,0.1,0.5L33.5,4.8z M9.8,28h10.8c0.4,0,1,0.1,1.3,0.4c0,0.1,0.1,0.1,0.1,0.2c0,1.1-0.5,2.2-1.2,3h-8
			c-1.7,0-3-1.4-3-3V28z M10.5,51.1c-2.8,0-5.1-2.3-5.1-5.1c0-2.8,2.3-5.1,5-5.1l1.5,0.9l-0.6,1.2c-0.3-0.1-0.5-0.1-0.8-0.1
			c-1.7,0-3.2,1.4-3.2,3.2c0,1.8,1.4,3.2,3.2,3.2c1.7,0,3.2-1.4,3.2-3.2c0-0.9-0.4-1.8-1-2.3l0.6-1.1l1.6,1c0.4,0.8,0.7,1.6,0.7,2.5
			C15.5,48.8,13.3,51.1,10.5,51.1z M10.1,46.6c0.4,0.2,0.8,0.1,1-0.3l0.7-1.3c0.2,0.3,0.3,0.6,0.3,0.9c0,0.9-0.7,1.7-1.7,1.7
			c-0.9,0-1.7-0.8-1.7-1.7s0.7-1.7,1.7-1.7c0,0,0,0,0.1,0l-0.7,1.3C9.6,46,9.7,46.4,10.1,46.6z M45.4,38c-4.2,2.6-4.2,7-4.1,8.4
			c-0.4,0.2-1.5,0.5-4,1c-2.9,0.6-6.6,0.5-9.2,0.4c-2.2-0.1-4.3-0.8-6.2-1.9L4.6,35.7c0.5-0.7,1.2-2,1.2-3.7c0-1.6-0.8-3-1.5-4h4
			v0.5c0,2.5,2,4.5,4.5,4.5h6.8c-0.6,1.3-0.3,2.9,1,4.5c2.5,2.9,6.2,3.2,6.4,3.2c0.3,0,8.4,0.5,11.2-0.8c3-1.4,4.9-5.8,4.5-8.9
			c-0.2-1.8-2.9-6.9-6.2-12.9c-1.1-2-2.1-3.9-2.3-4.3c-0.1-0.2,0-0.3,0-0.4c0.1-0.3,0.5-0.5,0.8-0.6c0.5,0.1,1.9,0.3,2.9,0.7
			c1.2,0.4,2.7,1.3,3.4,3c0.1,0.3,0.1,0.5,0,0.6c-0.2,0.5-1.1,0.9-1.4,1c-0.3,0.1-0.5,0.4-0.5,0.7c0,0.3,0.2,0.6,0.5,0.7
			c0,0,3.7,1.3,9.3,7.2c4.2,4.5,4.8,9,4.8,11C52.3,37,48.5,36,45.4,38z M50.4,51.1c-2.8,0-5.1-2.3-5.1-5.1c0-1.9,1-3.5,2.5-4.4
			l0.7,1.8c-0.8,0.6-1.3,1.5-1.3,2.6c0,1.8,1.4,3.2,3.2,3.2c1.7,0,3.2-1.4,3.2-3.2c0-1.8-1.4-3.2-3.2-3.2c-0.1,0-0.3,0-0.4,0
			L49.3,41c0.4-0.1,0.7-0.1,1.1-0.1c2.8,0,5.1,2.3,5.1,5.1C55.5,48.8,53.2,51.1,50.4,51.1z"/>
	</g>
</g>
</svg>
