<?xml version="1.0" encoding="utf-8"?>
<!-- Generator: Adobe Illustrator 19.1.0, SVG Export Plug-In . SVG Version: 6.00 Build 0)  -->
<svg version="1.1" id="Layer_1" xmlns="http://www.w3.org/2000/svg" xmlns:xlink="http://www.w3.org/1999/xlink" x="0px" y="0px"
	 width="32px" height="39.3px" viewBox="-4 7.5 32 39.3" style="enable-background:new -4 7.5 32 39.3;" xml:space="preserve">
<style type="text/css">
	.st0{clip-path:url(#SVGID_2_);fill:#FF6E00;}
	.st1{clip-path:url(#SVGID_4_);fill:none;stroke:#FFFFFF;stroke-miterlimit:10;}
	.st2{clip-path:url(#SVGID_6_);fill:#FFFFFF;}
	.st3{clip-path:url(#SVGID_8_);fill:#808080;}
</style>
<g>
	<g>
		<g>
			<defs>
				<rect id="SVGID_1_" x="-4" y="7.5" width="32" height="40.2"/>
			</defs>
			<clipPath id="SVGID_2_">
				<use xlink:href="#SVGID_1_"  style="overflow:visible;"/>
			</clipPath>
			<path class="st0" d="M27.8,23.5C27.8,35.9,12,46,12,46S-3.8,35.6-3.8,23.5c0-8.7,7.1-15.8,15.8-15.8S27.8,14.7,27.8,23.5"/>
		</g>
	</g>
	<g>
		<g>
			<defs>
				<rect id="SVGID_3_" x="-4" y="7.5" width="32" height="40.2"/>
			</defs>
			<clipPath id="SVGID_4_">
				<use xlink:href="#SVGID_3_"  style="overflow:visible;"/>
			</clipPath>
			<path class="st1" d="M27.8,23.5C27.8,35.9,12,46,12,46S-3.8,35.6-3.8,23.5c0-8.7,7.1-15.8,15.8-15.8S27.8,14.7,27.8,23.5z"/>
		</g>
	</g>
	<g>
		<g>
			<defs>
				<rect id="SVGID_5_" x="-4" y="7.5" width="32" height="40.2"/>
			</defs>
			<clipPath id="SVGID_6_">
				<use xlink:href="#SVGID_5_"  style="overflow:visible;"/>
			</clipPath>
			<path class="st2" d="M24.1,23.6c0,6.7-5.4,12.1-12.1,12.1S-0.1,30.3-0.1,23.6c0-6.7,5.4-12.1,12.1-12.1S24.1,16.9,24.1,23.6"/>
		</g>
	</g>
	<g>
		<g>
			<defs>
				<rect id="SVGID_7_" x="-4" y="7.5" width="32" height="40.2"/>
			</defs>
			<clipPath id="SVGID_8_">
				<use xlink:href="#SVGID_7_"  style="overflow:visible;"/>
			</clipPath>
			<path class="st3" d="M15.2,20.4c0-0.9-0.3-1.6-0.9-2.3c-0.6-0.6-1.4-0.9-2.3-0.9c-0.9,0-1.6,0.3-2.3,0.9s-0.9,1.4-0.9,2.3
				s0.3,1.6,0.9,2.3c0.6,0.6,1.4,0.9,2.3,0.9c0.9,0,1.6-0.3,2.3-0.9S15.2,21.3,15.2,20.4z M6.8,26.7c-0.8,0.5-1.2,1.1-1.2,1.7v1.6
				h12.8v-1.6c0-0.7-0.4-1.2-1.2-1.7c-0.8-0.5-1.7-0.9-2.6-1.1s-1.8-0.3-2.6-0.3s-1.7,0.1-2.6,0.3C8.4,25.8,7.6,26.2,6.8,26.7z"/>
		</g>
	</g>
</g>
</svg>
