<?xml version="1.0" encoding="utf-8"?>
<!-- Generator: Adobe Illustrator 16.0.0, SVG Export Plug-In . SVG Version: 6.00 Build 0)  -->
<!DOCTYPE svg PUBLIC "-//W3C//DTD SVG 1.1//EN" "http://www.w3.org/Graphics/SVG/1.1/DTD/svg11.dtd">
<svg version="1.1" id="Layer_1" xmlns="http://www.w3.org/2000/svg" xmlns:xlink="http://www.w3.org/1999/xlink" x="0px" y="0px"
	 width="42px" height="51.235px" viewBox="0 0 42 51.235" enable-background="new 0 0 42 51.235" xml:space="preserve">
<g>
	<defs>
		<rect id="SVGID_1_" y="0" width="42" height="52.754"/>
	</defs>
	<clipPath id="SVGID_2_">
		<use xlink:href="#SVGID_1_"  overflow="visible"/>
	</clipPath>
	<path clip-path="url(#SVGID_2_)" fill="#FF6E00" d="M41.75,21C41.75,37.284,21,50.568,21,50.568S0.25,36.991,0.25,21
		C0.25,9.541,9.54,0.25,21,0.25S41.75,9.541,41.75,21"/>
	<path clip-path="url(#SVGID_2_)" fill="none" stroke="#FFFFFF" stroke-miterlimit="10" d="M41.75,21
		C41.75,37.284,21,50.568,21,50.568S0.25,36.991,0.25,21C0.25,9.541,9.54,0.25,21,0.25S41.75,9.541,41.75,21z"/>
	<path clip-path="url(#SVGID_2_)" fill="#FFFFFF" d="M36.914,21.223c0,8.789-7.125,15.914-15.914,15.914S5.086,30.012,5.086,21.223
		S12.211,5.31,21,5.31S36.914,12.434,36.914,21.223"/>
	<path clip-path="url(#SVGID_2_)" fill="#CCCCCC" d="M25.213,17.01c0-1.165-0.411-2.159-1.232-2.98
		c-0.821-0.82-1.814-1.231-2.98-1.231s-2.16,0.411-2.98,1.231c-0.821,0.821-1.231,1.815-1.231,2.98c0,1.166,0.411,2.16,1.231,2.981
		c0.82,0.82,1.814,1.231,2.98,1.231s2.159-0.411,2.98-1.231C24.802,19.17,25.213,18.176,25.213,17.01z M14.152,25.239
		c-1.035,0.673-1.552,1.437-1.552,2.291v2.119h16.799V27.53c0-0.854-0.517-1.618-1.552-2.291c-1.034-0.673-2.176-1.158-3.424-1.454
		c-1.249-0.296-2.389-0.443-3.424-0.443c-1.035,0-2.176,0.147-3.424,0.443C16.328,24.081,15.187,24.566,14.152,25.239z"/>
</g>
</svg>
