<?xml version="1.0" encoding="utf-8"?>
<!-- Generator: Adobe Illustrator 19.1.0, SVG Export Plug-In . SVG Version: 6.00 Build 0)  -->
<svg version="1.1" id="Layer_1" xmlns="http://www.w3.org/2000/svg" xmlns:xlink="http://www.w3.org/1999/xlink" x="0px" y="0px"
	 width="42px" height="51.2px" viewBox="0 1.6 42 51.2" style="enable-background:new 0 1.6 42 51.2;" xml:space="preserve">
<style type="text/css">
	.st0{clip-path:url(#SVGID_2_);fill:#77C720;}
	.st1{clip-path:url(#SVGID_4_);fill:none;stroke:#FFFFFF;stroke-miterlimit:10;}
	.st2{clip-path:url(#SVGID_6_);fill:#FFFFFF;}
	.st3{clip-path:url(#SVGID_8_);fill:#808080;}
</style>
<g>
	<g>
		<defs>
			<rect id="SVGID_1_" y="1.6" width="42" height="52.8"/>
		</defs>
		<clipPath id="SVGID_2_">
			<use xlink:href="#SVGID_1_"  style="overflow:visible;"/>
		</clipPath>
		<path class="st0" d="M41.8,22.6C41.8,38.8,21,52.1,21,52.1S0.3,38.6,0.3,22.6C0.3,11.1,9.5,1.8,21,1.8S41.8,11.1,41.8,22.6"/>
	</g>
	<g>
		<defs>
			<rect id="SVGID_3_" y="1.6" width="42" height="52.8"/>
		</defs>
		<clipPath id="SVGID_4_">
			<use xlink:href="#SVGID_3_"  style="overflow:visible;"/>
		</clipPath>
		<path class="st1" d="M41.8,22.6C41.8,38.8,21,52.1,21,52.1S0.3,38.6,0.3,22.6C0.3,11.1,9.5,1.8,21,1.8S41.8,11.1,41.8,22.6z"/>
	</g>
	<g>
		<defs>
			<rect id="SVGID_5_" y="1.6" width="42" height="52.8"/>
		</defs>
		<clipPath id="SVGID_6_">
			<use xlink:href="#SVGID_5_"  style="overflow:visible;"/>
		</clipPath>
		<path class="st2" d="M36.9,22.8c0,8.8-7.1,15.9-15.9,15.9S5.1,31.6,5.1,22.8S12.2,6.9,21,6.9S36.9,14,36.9,22.8"/>
	</g>
	<g>
		<defs>
			<rect id="SVGID_7_" y="1.6" width="42" height="52.8"/>
		</defs>
		<clipPath id="SVGID_8_">
			<use xlink:href="#SVGID_7_"  style="overflow:visible;"/>
		</clipPath>
		<path class="st3" d="M25.2,18.6c0-1.2-0.4-2.2-1.2-3c-0.8-0.8-1.8-1.2-3-1.2s-2.2,0.4-3,1.2c-0.8,0.8-1.2,1.8-1.2,3
			c0,1.2,0.4,2.2,1.2,3c0.8,0.8,1.8,1.2,3,1.2s2.2-0.4,3-1.2C24.8,20.7,25.2,19.7,25.2,18.6z M14.2,26.8c-1,0.7-1.6,1.4-1.6,2.3v2.1
			h16.8v-2.1c0-0.9-0.5-1.6-1.6-2.3c-1-0.7-2.2-1.2-3.4-1.5c-1.2-0.3-2.4-0.4-3.4-0.4s-2.2,0.1-3.4,0.4
			C16.3,25.6,15.2,26.1,14.2,26.8z"/>
	</g>
</g>
</svg>
