<?xml version="1.0" encoding="utf-8"?>
<!-- Generator: Adobe Illustrator 19.1.0, SVG Export Plug-In . SVG Version: 6.00 Build 0)  -->
<svg version="1.1" id="Layer_1" xmlns="http://www.w3.org/2000/svg" xmlns:xlink="http://www.w3.org/1999/xlink" x="0px" y="0px"
	 width="42px" height="51.2px" viewBox="0 1.6 42 51.2" style="enable-background:new 0 1.6 42 51.2;" xml:space="preserve">
<style type="text/css">
	.st0{clip-path:url(#SVGID_2_);fill:#00AEFF;}
	.st1{clip-path:url(#SVGID_4_);fill:none;stroke:#FFFFFF;stroke-miterlimit:10;}
	.st2{clip-path:url(#SVGID_6_);fill:#FFFFFF;}
	.st3{clip-path:url(#SVGID_8_);fill:#808080;}
</style>
<g>
	<g>
		<g>
			<g>
				<g>
					<g>
						<defs>
							<rect id="SVGID_1_" y="1.6" width="42" height="52.8"/>
						</defs>
						<clipPath id="SVGID_2_">
							<use xlink:href="#SVGID_1_"  style="overflow:visible;"/>
						</clipPath>
						<path class="st0" d="M41.7,22.6C41.7,38.9,21,52.3,21,52.3S0.1,38.6,0.1,22.6C0.1,11,9.4,1.9,20.9,1.9S41.7,11,41.7,22.6"/>
					</g>
				</g>
			</g>
		</g>
	</g>
	<g>
		<g>
			<g>
				<g>
					<g>
						<defs>
							<rect id="SVGID_3_" y="1.6" width="42" height="52.8"/>
						</defs>
						<clipPath id="SVGID_4_">
							<use xlink:href="#SVGID_3_"  style="overflow:visible;"/>
						</clipPath>
						<path class="st1" d="M41.7,22.6C41.7,38.9,21,52.3,21,52.3S0.1,38.6,0.1,22.6C0.1,11,9.4,1.9,20.9,1.9S41.7,11,41.7,22.6z"/>
					</g>
				</g>
			</g>
		</g>
	</g>
	<g>
		<g>
			<g>
				<g>
					<g>
						<defs>
							<rect id="SVGID_5_" y="1.6" width="42" height="52.8"/>
						</defs>
						<clipPath id="SVGID_6_">
							<use xlink:href="#SVGID_5_"  style="overflow:visible;"/>
						</clipPath>
						<path class="st2" d="M36.9,22.7c0,8.9-7.1,16-15.9,16s-15.9-7.1-15.9-16S12.2,6.8,21,6.8S36.9,13.9,36.9,22.7"/>
					</g>
				</g>
			</g>
		</g>
		<g>
			<g>
				<g>
					<g>
						<defs>
							<rect id="SVGID_7_" y="1.6" width="42" height="52.8"/>
						</defs>
						<clipPath id="SVGID_8_">
							<use xlink:href="#SVGID_7_"  style="overflow:visible;"/>
						</clipPath>
						<path class="st3" d="M11,33.2h10.4V12.4H11V33.2z M17.5,15h2.6v3h-2.6V15z M17.5,20.2h2.6v3h-2.6V20.2z M17.5,25.4h2.6v3h-2.6
							V25.4z M12.3,15H15v3h-2.7V15z M12.3,20.2H15v3h-2.7V20.2z M12.3,25.4H15v3h-2.7V25.4z M21.9,19.7H31V21h-9.1V19.7z
							 M21.9,33.2h2.6v-3.9h3.9v3.9H31V21.5h-9.1V33.2L21.9,33.2z"/>
					</g>
				</g>
			</g>
		</g>
	</g>
</g>
</svg>
