<?xml version="1.0" encoding="utf-8"?>
<!-- Generator: Adobe Illustrator 19.1.0, SVG Export Plug-In . SVG Version: 6.00 Build 0)  -->
<svg version="1.1" id="Layer_1" xmlns="http://www.w3.org/2000/svg" xmlns:xlink="http://www.w3.org/1999/xlink" x="0px" y="0px"
	 width="32px" height="39px" viewBox="-4 7.8 32 39" style="enable-background:new -4 7.8 32 39;" xml:space="preserve">
<style type="text/css">
	.st0{clip-path:url(#SVGID_2_);fill:#00AEFF;}
	.st1{clip-path:url(#SVGID_4_);fill:none;stroke:#FFFFFF;stroke-miterlimit:10;}
	.st2{clip-path:url(#SVGID_6_);fill:#FFFFFF;}
	.st3{clip-path:url(#SVGID_8_);fill:#808080;}
</style>
<g>
	<g>
		<g>
			<g>
				<g>
					<defs>
						<rect id="SVGID_1_" x="-4" y="7.8" width="32" height="40.2"/>
					</defs>
					<clipPath id="SVGID_2_">
						<use xlink:href="#SVGID_1_"  style="overflow:visible;"/>
					</clipPath>
					<path class="st0" d="M27.8,23.8C27.8,36.2,12,46.4,12,46.4S-3.9,36-3.9,23.8C-3.9,15,3.2,8,11.9,8S27.8,15,27.8,23.8"/>
				</g>
			</g>
		</g>
	</g>
	<g>
		<g>
			<g>
				<g>
					<defs>
						<rect id="SVGID_3_" x="-4" y="7.8" width="32" height="40.2"/>
					</defs>
					<clipPath id="SVGID_4_">
						<use xlink:href="#SVGID_3_"  style="overflow:visible;"/>
					</clipPath>
					<path class="st1" d="M27.8,23.8C27.8,36.2,12,46.4,12,46.4S-3.9,36-3.9,23.8C-3.9,15,3.2,8,11.9,8S27.8,15,27.8,23.8z"/>
				</g>
			</g>
		</g>
	</g>
	<g>
		<g>
			<g>
				<g>
					<defs>
						<rect id="SVGID_5_" x="-4" y="7.8" width="32" height="40.2"/>
					</defs>
					<clipPath id="SVGID_6_">
						<use xlink:href="#SVGID_5_"  style="overflow:visible;"/>
					</clipPath>
					<path class="st2" d="M24.1,23.9c0,6.8-5.4,12.2-12.1,12.2S-0.1,30.7-0.1,23.9S5.3,11.8,12,11.8S24.1,17.2,24.1,23.9"/>
				</g>
			</g>
		</g>
		<g>
			<g>
				<g>
					<defs>
						<rect id="SVGID_7_" x="-4" y="7.8" width="32" height="40.2"/>
					</defs>
					<clipPath id="SVGID_8_">
						<use xlink:href="#SVGID_7_"  style="overflow:visible;"/>
					</clipPath>
					<path class="st3" d="M4.4,31.9h7.9V16H4.4V31.9z M9.3,18h2v2.3h-2V18z M9.3,22h2v2.3h-2V22z M9.3,25.9h2v2.3h-2V25.9z M5.4,18
						h2v2.3h-2V18z M5.4,22h2v2.3h-2V22z M5.4,25.9h2v2.3h-2V25.9z M12.7,21.6h6.9v1h-6.9V21.6z M12.7,31.9h2v-3h3v3h2V23h-6.9v8.9
						H12.7z"/>
				</g>
			</g>
		</g>
	</g>
</g>
</svg>
