<?xml version="1.0" encoding="utf-8"?>
<!-- Generator: Adobe Illustrator 19.1.0, SVG Export Plug-In . SVG Version: 6.00 Build 0)  -->
<svg version="1.1" id="Layer_1" xmlns="http://www.w3.org/2000/svg" xmlns:xlink="http://www.w3.org/1999/xlink" x="0px" y="0px"
	 width="32px" height="39px" viewBox="-4 7.8 32 39" style="enable-background:new -4 7.8 32 39;" xml:space="preserve">
<style type="text/css">
	.st0{clip-path:url(#SVGID_2_);fill:#FF6E00;}
	.st1{clip-path:url(#SVGID_4_);fill:none;stroke:#FFFFFF;stroke-miterlimit:10;}
	.st2{clip-path:url(#SVGID_6_);fill:#FFFFFF;}
	.st3{clip-path:url(#SVGID_8_);fill:#808080;}
</style>
<g>
	<g>
		<g>
			<g>
				<g>
					<defs>
						<rect id="SVGID_1_" x="-4" y="7.8" width="32" height="40.2"/>
					</defs>
					<clipPath id="SVGID_2_">
						<use xlink:href="#SVGID_1_"  style="overflow:visible;"/>
					</clipPath>
					<path class="st0" d="M27.8,23.8C27.8,36.2,12,46.4,12,46.4S-3.9,36-3.9,23.8C-3.9,15,3.2,8,11.9,8S27.8,15,27.8,23.8"/>
				</g>
			</g>
		</g>
	</g>
	<g>
		<g>
			<g>
				<g>
					<defs>
						<rect id="SVGID_3_" x="-4" y="7.8" width="32" height="40.2"/>
					</defs>
					<clipPath id="SVGID_4_">
						<use xlink:href="#SVGID_3_"  style="overflow:visible;"/>
					</clipPath>
					<path class="st1" d="M27.8,23.8C27.8,36.2,12,46.4,12,46.4S-3.9,36-3.9,23.8C-3.9,15,3.2,8,11.9,8S27.8,15,27.8,23.8z"/>
				</g>
			</g>
		</g>
	</g>
	<g>
		<g>
			<g>
				<g>
					<defs>
						<rect id="SVGID_5_" x="-4" y="7.8" width="32" height="40.2"/>
					</defs>
					<clipPath id="SVGID_6_">
						<use xlink:href="#SVGID_5_"  style="overflow:visible;"/>
					</clipPath>
					<path class="st2" d="M24.1,23.9c0,6.8-5.4,12.2-12.1,12.2S-0.1,30.7-0.1,23.9S5.3,11.8,12,11.8S24.1,17.2,24.1,23.9"/>
				</g>
			</g>
		</g>
		<g>
			<g>
				<g>
					<defs>
						<rect id="SVGID_7_" x="-4" y="7.8" width="32" height="40.2"/>
					</defs>
					<clipPath id="SVGID_8_">
						<use xlink:href="#SVGID_7_"  style="overflow:visible;"/>
					</clipPath>
					<path class="st3" d="M20.5,19.8h-0.4v-0.9c0-0.1-0.1-0.2-0.2-0.2h-1.4v-1.6c0-0.3-0.2-0.5-0.5-0.5H6.2c-0.3,0-0.5,0.2-0.5,0.5
						v1.7H4.3c-0.1,0-0.2,0.1-0.2,0.2v0.9H3.7c-0.2,0-0.4,0.2-0.4,0.4v1.8c0,0.2,0.2,0.4,0.4,0.4h0.4v0.9c0,0.1,0.1,0.2,0.2,0.2h1.4
						v1.6l0,0c-0.3,0-0.5,0.2-0.5,0.5v2.1c0,0.2,0.1,0.3,0.2,0.5c-0.2,0.1-0.2,0.2-0.2,0.5v0.8c0,0.3,0.2,0.5,0.5,0.5H6v0.8
						c0,0.2,0.2,0.4,0.5,0.4h1.8c0.3,0,0.5-0.2,0.5-0.4V30h6.4v0.8c0,0.2,0.2,0.4,0.5,0.4h1.8c0.3,0,0.5-0.2,0.5-0.4V30h0.3
						c0.3,0,0.5-0.2,0.5-0.5v-0.8c0-0.2-0.1-0.3-0.2-0.5c0.2-0.1,0.2-0.2,0.2-0.5v-2.1c0-0.3-0.2-0.5-0.5-0.5l0,0v-1.6h1.4
						c0.1,0,0.2-0.1,0.2-0.2v-0.9h0.4c0.2,0,0.4-0.2,0.4-0.4v-1.9C20.8,20.1,20.6,19.8,20.5,19.8z M5.6,23.2H4.3v-0.8h0.4
						c0.2,0,0.4-0.2,0.4-0.4v-1.9c0-0.2-0.2-0.4-0.4-0.4H4.3v-0.8h1.3V23.2L5.6,23.2z M6.4,29.7c-0.3,0-0.5-0.2-0.5-0.5
						s0.2-0.5,0.5-0.5s0.5,0.2,0.5,0.5C6.9,29.4,6.7,29.7,6.4,29.7z M7.7,29.7c-0.3,0-0.5-0.2-0.5-0.5s0.2-0.5,0.5-0.5
						s0.5,0.2,0.5,0.5S8,29.7,7.7,29.7z M8.3,27.6H5.9v-1.4h2.4V27.6z M14.9,28.4H9.1v-0.7h5.8L14.9,28.4L14.9,28.4z M14.9,27.3H9.1
						v-0.8h5.8L14.9,27.3L14.9,27.3z M14.9,26.1H9.1v-0.8h5.8L14.9,26.1L14.9,26.1z M14.9,24.9H9.1v-0.8h5.8L14.9,24.9L14.9,24.9z
						 M6.7,21.5v-3.9h10.6v3.9H6.7z M16.3,29.7c-0.3,0-0.5-0.2-0.5-0.5s0.2-0.5,0.5-0.5s0.5,0.2,0.5,0.5
						C16.7,29.4,16.5,29.7,16.3,29.7z M17.6,29.7c-0.3,0-0.5-0.2-0.5-0.5s0.2-0.5,0.5-0.5s0.5,0.2,0.5,0.5S17.9,29.7,17.6,29.7z
						 M18.1,27.6h-2.4v-1.4h2.4V27.6L18.1,27.6z M19.7,19.8h-0.4c-0.2,0-0.4,0.2-0.4,0.4v1.9c0,0.2,0.2,0.4,0.4,0.4h0.4v0.8h-1.3
						v-4.2h1.3V19.8z"/>
				</g>
			</g>
		</g>
	</g>
</g>
</svg>
