<?xml version="1.0" encoding="utf-8"?>
<!-- Generator: Adobe Illustrator 19.1.0, SVG Export Plug-In . SVG Version: 6.00 Build 0)  -->
<svg version="1.1" id="Layer_1" xmlns="http://www.w3.org/2000/svg" xmlns:xlink="http://www.w3.org/1999/xlink" x="0px" y="0px"
	 width="32px" height="39px" viewBox="-4 7.8 32 39" style="enable-background:new -4 7.8 32 39;" xml:space="preserve">
<style type="text/css">
	.st0{clip-path:url(#SVGID_2_);fill:#F37021;}
	.st1{clip-path:url(#SVGID_4_);fill:none;stroke:#FFFFFF;stroke-miterlimit:10;}
	.st2{clip-path:url(#SVGID_6_);fill:#FFFFFF;}
	.st3{clip-path:url(#SVGID_8_);fill:#808080;}
</style>
<g>
	<g>
		<g>
			<g>
				<g>
					<g>
						<defs>
							<rect id="SVGID_1_" x="-4" y="7.8" width="32" height="40.2"/>
						</defs>
						<clipPath id="SVGID_2_">
							<use xlink:href="#SVGID_1_"  style="overflow:visible;"/>
						</clipPath>
						<path class="st0" d="M27.8,23.8C27.8,36.2,12,46.4,12,46.4S-3.9,36-3.9,23.8C-3.9,15,3.2,8,11.9,8S27.8,15,27.8,23.8"/>
					</g>
				</g>
			</g>
		</g>
	</g>
	<g>
		<g>
			<g>
				<g>
					<g>
						<defs>
							<rect id="SVGID_3_" x="-4" y="7.8" width="32" height="40.2"/>
						</defs>
						<clipPath id="SVGID_4_">
							<use xlink:href="#SVGID_3_"  style="overflow:visible;"/>
						</clipPath>
						<path class="st1" d="M27.8,23.8C27.8,36.2,12,46.4,12,46.4S-3.9,36-3.9,23.8C-3.9,15,3.2,8,11.9,8S27.8,15,27.8,23.8z"/>
					</g>
				</g>
			</g>
		</g>
	</g>
	<g>
		<g>
			<g>
				<g>
					<g>
						<defs>
							<rect id="SVGID_5_" x="-4" y="7.8" width="32" height="40.2"/>
						</defs>
						<clipPath id="SVGID_6_">
							<use xlink:href="#SVGID_5_"  style="overflow:visible;"/>
						</clipPath>
						<path class="st2" d="M24.1,23.9C24.1,30.6,18.7,36,12,36S-0.1,30.6-0.1,23.9S5.3,11.8,12,11.8S24.1,17.2,24.1,23.9"/>
					</g>
				</g>
			</g>
		</g>
		<g>
			<g>
				<g>
					<g>
						<defs>
							<rect id="SVGID_7_" x="-4" y="7.8" width="32" height="40.2"/>
						</defs>
						<clipPath id="SVGID_8_">
							<use xlink:href="#SVGID_7_"  style="overflow:visible;"/>
						</clipPath>
						<path class="st3" d="M20.5,19.7h-0.8c-0.3,0-0.5,0.2-0.5,0.5v0.2h-0.5l-0.9-4.3c-0.1-0.2-0.3-0.5-0.5-0.5H6.7
							c-0.2,0-0.5,0.2-0.5,0.5l-0.9,4.3H4.8v-0.2c0-0.3-0.2-0.5-0.5-0.5H3.5c-0.3,0-0.5,0.2-0.5,0.5V22c0,0.3,0.2,0.5,0.5,0.5h0.8
							c0.3,0,0.5-0.2,0.5-0.5v-0.8h0.3v3.2v5.9c0,0.3,0.2,0.5,0.5,0.5h0.2v0.7c0,0.5,0.4,0.9,0.9,0.9h0.8c0.5,0,0.9-0.4,0.9-0.9
							v-0.7h6.9v0.7c0,0.5,0.4,0.9,0.9,0.9H17c0.5,0,0.9-0.4,0.9-0.9v-0.7h0.2c0.3,0,0.5-0.2,0.5-0.5v-5.9v-3.2h0.3V22
							c0,0.3,0.2,0.5,0.5,0.5h0.8c0.3,0,0.5-0.2,0.5-0.5v-1.8C21,19.9,20.8,19.7,20.5,19.7z M7.2,28.7c-0.5,0-1-0.5-1-1s0.5-1,1-1
							s1,0.5,1,1C8.3,28.2,7.8,28.7,7.2,28.7z M14.7,29.5H9.4V29h5.3V29.5z M14.7,28.6H9.4v-0.5h5.3V28.6z M14.7,27.7H9.4v-0.5h5.3
							V27.7z M14.7,26.8H9.4v-0.5h5.3V26.8z M12,24.6c-2.1,0-4-0.2-5.7-0.8V21l0.9-4.3h9.7l0.9,4.3v2.8C16,24.3,14.1,24.6,12,24.6z
							 M16.8,28.7c-0.5,0-1-0.5-1-1s0.5-1,1-1s1,0.5,1,1S17.3,28.7,16.8,28.7z"/>
					</g>
				</g>
			</g>
		</g>
	</g>
</g>
</svg>
