<?xml version="1.0" encoding="utf-8"?>
<!-- Generator: Adobe Illustrator 19.1.0, SVG Export Plug-In . SVG Version: 6.00 Build 0)  -->
<svg version="1.1" id="Layer_1" xmlns="http://www.w3.org/2000/svg" xmlns:xlink="http://www.w3.org/1999/xlink" x="0px" y="0px"
	 width="32px" height="39px" viewBox="-4 7.8 32 39" style="enable-background:new -4 7.8 32 39;" xml:space="preserve">
<style type="text/css">
	.st0{clip-path:url(#SVGID_2_);fill:#FF6E00;}
	.st1{clip-path:url(#SVGID_4_);fill:none;stroke:#FFFFFF;stroke-miterlimit:10;}
	.st2{clip-path:url(#SVGID_6_);fill:#FFFFFF;}
	.st3{clip-path:url(#SVGID_8_);}
	.st4{fill:#808080;}
</style>
<g>
	<g>
		<g>
			<g>
				<g>
					<defs>
						<rect id="SVGID_1_" x="-4" y="7.8" width="32" height="40.2"/>
					</defs>
					<clipPath id="SVGID_2_">
						<use xlink:href="#SVGID_1_"  style="overflow:visible;"/>
					</clipPath>
					<path class="st0" d="M27.8,23.8C27.8,36.2,12,46.4,12,46.4S-3.9,36-3.9,23.8C-3.9,15,3.2,8,11.9,8S27.8,15,27.8,23.8"/>
				</g>
			</g>
		</g>
	</g>
	<g>
		<g>
			<g>
				<g>
					<defs>
						<rect id="SVGID_3_" x="-4" y="7.8" width="32" height="40.2"/>
					</defs>
					<clipPath id="SVGID_4_">
						<use xlink:href="#SVGID_3_"  style="overflow:visible;"/>
					</clipPath>
					<path class="st1" d="M27.8,23.8C27.8,36.2,12,46.4,12,46.4S-3.9,36-3.9,23.8C-3.9,15,3.2,8,11.9,8S27.8,15,27.8,23.8z"/>
				</g>
			</g>
		</g>
	</g>
	<g>
		<g>
			<g>
				<g>
					<defs>
						<rect id="SVGID_5_" x="-4" y="7.8" width="32" height="40.2"/>
					</defs>
					<clipPath id="SVGID_6_">
						<use xlink:href="#SVGID_5_"  style="overflow:visible;"/>
					</clipPath>
					<path class="st2" d="M24.1,23.9c0,6.8-5.4,12.2-12.1,12.2S-0.1,30.7-0.1,23.9S5.3,11.8,12,11.8S24.1,17.2,24.1,23.9"/>
				</g>
			</g>
		</g>
		<g>
			<g>
				<g>
					<defs>
						<rect id="SVGID_7_" x="-4" y="7.8" width="32" height="40.2"/>
					</defs>
					<clipPath id="SVGID_8_">
						<use xlink:href="#SVGID_7_"  style="overflow:visible;"/>
					</clipPath>
					<g class="st3">
						<g>
							<path class="st4" d="M15.8,23.2h-2.4c-0.2,0-0.3-0.2-0.3-0.3l-0.5-3.4c0-0.2-0.2-0.6-0.8-0.6l-3,0.2c-0.4,0-0.8,0.2-0.8,0.8
								c0,0,0,7.6,0,7.9l-0.1,1.9c0,0.2-0.1,0.7-0.2,0.9l-1.2,2.8c-0.1,0.2-0.1,0.4,0,0.5c0.1,0.2,0.2,0.3,0.5,0.4l0.4,0.1
								c0.1,0,0.2,0,0.2,0c0.3,0,0.6-0.2,0.8-0.5l1.1-2.4c0.2-0.2,0.3-0.7,0.4-1l0.7-2.7l1.6,2.4c0.2,0.2,0.3,0.6,0.3,0.8l0.3,2.7
								c0.1,0.4,0.4,0.7,0.8,0.7h0.5c0.2,0,0.4-0.1,0.5-0.2c0.2-0.2,0.2-0.3,0.2-0.5l-0.3-3.3c0-0.3-0.2-0.8-0.2-1.1l-1.4-3.7v-0.8
								l3.4-0.2c0.2,0,0.4-0.1,0.5-0.2c0.2-0.2,0.2-0.3,0.2-0.5l0,0C16.5,23.5,16.2,23.2,15.8,23.2z M9.6,18.1
								c0.2,0,0.5-0.1,0.8-0.2c0.5-0.2,1-0.6,1.3-1.1c0.2-0.4,0.2-0.8,0.2-1.2l0.8-0.1c0.2,0,0.5-0.2,0.6-0.5l0.2-0.7
								c0.1-0.2,0.1-0.3-0.1-0.4c-0.1-0.1-0.2-0.2-0.4-0.2c0,0,0,0-0.1,0l-2.2,0.2c-0.4-0.2-0.8-0.4-1.2-0.4c-0.2,0-0.5,0.1-0.8,0.2
								c-0.5,0.2-1,0.6-1.3,1.1c-0.2,0.5-0.3,1.1-0.1,1.8C7.9,17.5,8.7,18.1,9.6,18.1z M19,18.5c0-0.4-0.4-0.7-0.7-0.7h-4.2
								c-0.2,0-0.4,0.1-0.5,0.2c-0.2,0.2-0.2,0.3-0.2,0.5l0.2,3.1c0,0.4,0.4,0.7,0.7,0.7h4.2c0.2,0,0.4-0.1,0.5-0.2
								c0.2-0.2,0.2-0.3,0.2-0.5L19,18.5z"/>
						</g>
					</g>
				</g>
			</g>
		</g>
	</g>
</g>
</svg>
