<?xml version="1.0" encoding="utf-8"?>
<!-- Generator: Adobe Illustrator 19.1.0, SVG Export Plug-In . SVG Version: 6.00 Build 0)  -->
<svg version="1.1" id="Layer_1" xmlns="http://www.w3.org/2000/svg" xmlns:xlink="http://www.w3.org/1999/xlink" x="0px" y="0px"
	 viewBox="0 187 220 28" style="enable-background:new 0 187 220 28;" xml:space="preserve">
<style type="text/css">
	.st0{fill:#7AC143;}
	.st1{fill:#00AEFF;}
	.st2{fill:#FF6E00;}
</style>
<g>
	<g>
		<g>
			<path class="st0" d="M27.4,187.9H2.6c-1.4,0-2.6,1.1-2.6,2.5V209c0,0.4,0.3,0.6,0.7,0.6h13.7v3.2h-3.3c-0.4,0-0.7,0.3-0.7,0.6
				c0,0.4,0.3,0.6,0.7,0.6h7.8c0.4,0,0.7-0.3,0.7-0.6c0-0.4-0.3-0.6-0.7-0.6h-3.3v-3.2h13.7c0.4,0,0.7-0.3,0.7-0.6v-18.6
				C30,189,28.8,187.9,27.4,187.9z M1.3,190.4c0-0.7,0.6-1.3,1.3-1.3h24.8c0.7,0,1.3,0.6,1.3,1.3v14.7H1.3V190.4z M28.7,208.4H1.3
				v-1.9h27.4C28.7,206.5,28.7,208.4,28.7,208.4z"/>
		</g>
	</g>
	<g>
		<g>
			<path class="st1" d="M91.3,207.5l-7.5-2.8l5.3-5.3l0.1-0.1l3-4.6c0.2-0.2,0.1-0.6-0.1-0.8l-6.6-6.6c-0.2-0.2-0.5-0.2-0.8-0.1
				l-4.6,3c0,0-0.1,0-0.1,0.1L69.4,201c-0.8,0.8-0.8,2.2,0,3l6,6c0.4,0.4,1,0.6,1.5,0.6c0.2,0,0.4,0,0.6-0.1l11,4.1
				c0.4,0.2,0.9,0.3,1.4,0.3s1.1-0.1,1.6-0.3c0.9-0.4,1.7-1.2,2-2.1C94.3,210.5,93.3,208.3,91.3,207.5z M84.9,188.7l5.9,5.9
				l-0.5,0.8l-6.2-6.1L84.9,188.7z M83.3,189.7l6.5,6.4l-1.4,2.1l-7.1-7.1L83.3,189.7z M76.3,209.1l-6-6c-0.4-0.4-0.4-0.9,0-1.3
				l10.3-10.2l7.3,7.3l-10.3,10.2C77.2,209.5,76.6,209.5,76.3,209.1z M92.3,212c-0.2,0.6-0.7,1.2-1.4,1.4c-0.6,0.3-1.3,0.3-2,0.1
				l-10.2-3.9l4-4l8,3C92.2,209.2,92.9,210.7,92.3,212z M87.6,208.5l-2.6-1.1c-0.8-0.3-1.7,0.1-2,0.9s0.1,1.7,0.9,2l2.6,1.1
				c0.2,0.1,0.4,0.1,0.6,0.1c0.6,0,1.2-0.4,1.5-1C88.8,209.7,88.4,208.8,87.6,208.5z M87.6,210.2c-0.1,0.2-0.2,0.3-0.3,0.3
				c-0.2,0.1-0.3,0.1-0.5,0l-2.6-1.1c-0.3-0.1-0.5-0.5-0.4-0.8c0.1-0.2,0.3-0.4,0.6-0.4c0.1,0,0.2,0,0.2,0l2.6,1.1
				C87.6,209.5,87.8,209.8,87.6,210.2z M77.2,199.3c-0.2-0.2-0.5-0.2-0.7,0l-3.5,3.5c-0.2,0.2-0.2,0.5,0,0.6
				c0.1,0.1,0.2,0.1,0.3,0.1c0.1,0,0.2,0,0.3-0.1l3.5-3.5C77.4,199.8,77.4,199.5,77.2,199.3z M78.2,200.3c-0.2-0.2-0.5-0.2-0.7,0
				l-3.5,3.5c-0.2,0.2-0.2,0.5,0,0.6c0.1,0.1,0.2,0.1,0.3,0.1c0.1,0,0.2,0,0.3-0.1l3.5-3.5C78.4,200.7,78.4,200.4,78.2,200.3z
				 M79.2,201.2c-0.2-0.2-0.5-0.2-0.7,0l-3.5,3.5c-0.2,0.2-0.2,0.5,0,0.6c0.1,0.1,0.2,0.1,0.3,0.1c0.1,0,0.2,0,0.3-0.1l3.5-3.5
				C79.4,201.7,79.4,201.4,79.2,201.2z M79.5,202.2l-3.5,3.5c-0.2,0.2-0.2,0.5,0,0.6c0.1,0.1,0.2,0.1,0.3,0.1c0.1,0,0.2,0,0.3-0.1
				l3.5-3.5c0.2-0.2,0.2-0.5,0-0.6C80,202,79.7,202,79.5,202.2z"/>
		</g>
	</g>
	<g>
		<g>
			<path class="st2" d="M146.6,195.3c-0.5,0.3-1.1,0.7-1.1,1.5c0,0.3,0.3,0.6,0.6,0.6s0.6-0.3,0.6-0.6c0-0.1,0.1-0.3,0.6-0.5
				c0.5-0.3,1.1-0.7,1.1-1.5s-0.7-1.2-1.1-1.5c-0.4-0.2-0.6-0.4-0.6-0.5s0.1-0.3,0.6-0.5c0.5-0.3,1.1-0.7,1.1-1.5
				c0-0.3-0.3-0.6-0.6-0.6s-0.6,0.3-0.6,0.6c0,0.1-0.1,0.3-0.6,0.5c-0.5,0.3-1.1,0.7-1.1,1.5s0.7,1.2,1.1,1.5
				c0.4,0.2,0.6,0.4,0.6,0.5C147.2,194.9,147,195,146.6,195.3z M141.2,196.7c-0.5,0.3-1.1,0.8-1.1,1.7c0,0.3,0.3,0.6,0.6,0.6
				s0.6-0.3,0.6-0.6s0.2-0.4,0.6-0.7c0.5-0.3,1.1-0.8,1.1-1.7s-0.6-1.3-1.1-1.7c-0.4-0.3-0.6-0.4-0.6-0.7s0.2-0.4,0.6-0.7
				c0.5-0.3,1.1-0.8,1.1-1.7c0-0.3-0.3-0.6-0.6-0.6s-0.6,0.3-0.6,0.6s-0.2,0.4-0.6,0.7c-0.5,0.3-1.1,0.8-1.1,1.7s0.6,1.3,1.1,1.7
				c0.4,0.3,0.6,0.4,0.6,0.7S141.6,196.4,141.2,196.7z M151.9,196.7c-0.5,0.3-1.1,0.8-1.1,1.7c0,0.3,0.3,0.6,0.6,0.6
				s0.6-0.3,0.6-0.6s0.2-0.4,0.6-0.7c0.5-0.3,1.1-0.8,1.1-1.7s-0.6-1.3-1.1-1.7c-0.4-0.2-0.6-0.3-0.6-0.6s0.2-0.4,0.6-0.7
				c0.5-0.3,1.1-0.8,1.1-1.7c0-0.3-0.3-0.6-0.6-0.6s-0.6,0.3-0.6,0.6s-0.2,0.4-0.6,0.7c-0.5,0.3-1.1,0.8-1.1,1.7s0.6,1.3,1.1,1.7
				c0.4,0.3,0.6,0.4,0.6,0.7C152.5,196.3,152.4,196.4,151.9,196.7z M160,203.3c0-1.1-0.9-2-2.1-2c-1,0-1.9,0.8-2.1,1.8h-4.5
				c-0.8-0.9-1.5-1.1-2.2-1.2c-0.5-0.1-0.9-0.1-1.3-0.5c-1.9-1.3-7.6-2-10.3,0.6c-2.1,2-1.5,4.5-0.8,5.8h-1.1
				c-0.3,0-0.5,0.2-0.6,0.4c-0.1,0.3,0,0.5,0.3,0.7l3.3,2c1,0.6,2.2,0.9,3.4,0.9h10.2c1.3,0,2.6-0.4,3.8-1.2l2.6-1.8
				c0.2-0.1,0.3-0.4,0.2-0.7c-0.1-0.2-0.3-0.4-0.6-0.4h-5.7c0.2-0.5,0.2-1.2,0.1-1.8h3.2c0.1,1,1,1.8,2.1,1.8s2.1-0.9,2.1-2
				c0-0.4-0.1-0.8-0.4-1.2C159.9,204.1,160,203.7,160,203.3z M138.4,202.8c0.6-0.6,1.3-0.9,2.1-1.2c0.1,0.1,1.6,1.6,1.6,3.1
				c0,0.3,0.3,0.6,0.6,0.6s0.6-0.3,0.6-0.6c0-1.3-0.9-2.6-1.4-3.3c1.2-0.1,2.4,0,3.4,0.2c0,0,0,0.1,0.1,0.1c0,0,1.9,1.6,1.6,3.5
				c-0.1,0.3,0.2,0.6,0.5,0.7h0.1c0.3,0,0.5-0.2,0.6-0.5c0.2-1.1-0.1-2.1-0.5-2.9c0.6,0.3,1,0.4,1.5,0.4c0.6,0.1,1,0.2,1.6,0.9
				c1,1.5,1.2,3.2,0.7,3.8H138c0-0.1,0-0.3-0.1-0.4C137.8,207.3,136.3,204.9,138.4,202.8z M156.4,208.9l-1.1,0.7
				c-0.9,0.6-2,0.9-3.1,0.9H142c-1,0-2-0.3-2.8-0.8l-1.5-0.9L156.4,208.9L156.4,208.9z M158.4,204.9c0.2,0.2,0.4,0.4,0.4,0.7
				c0,0.5-0.4,0.9-0.9,0.9s-0.9-0.4-0.9-0.9c0-0.1,0-0.1,0-0.2c0-0.2,0-0.4-0.1-0.5s-0.3-0.2-0.5-0.2h-4.1c-0.1-0.2-0.2-0.4-0.3-0.6
				h4.4c0.3,0,0.6-0.3,0.6-0.6c0-0.1,0-0.1,0-0.2v-0.1c0-0.5,0.4-0.9,0.9-0.9s0.9,0.4,0.9,0.9c0,0.3-0.1,0.5-0.4,0.7
				c-0.2,0.1-0.2,0.3-0.2,0.5C158.2,204.7,158.3,204.8,158.4,204.9z"/>
		</g>
	</g>
</g>
</svg>
