<?xml version="1.0" encoding="utf-8"?>
<!-- Generator: Adobe Illustrator 19.1.0, SVG Export Plug-In . SVG Version: 6.00 Build 0)  -->
<svg version="1.1" id="Layer_1" xmlns="http://www.w3.org/2000/svg" xmlns:xlink="http://www.w3.org/1999/xlink" x="0px" y="0px"
	 viewBox="0 187 220 28" style="enable-background:new 0 187 220 28;" xml:space="preserve">
<style type="text/css">
	.st0{fill:#77C720;}
	.st1{fill:#FF6E00;}
	.st2{fill:#00AEFF;}
</style>
<g>
	<path class="st0" d="M159.6,199.1h-2.8v-10.4c0-0.3-0.2-0.5-0.6-0.5h-3.9c-0.3,0-0.6,0.2-0.6,0.5v10.4h-0.6v-7.7
		c0-0.9-0.7-1.6-1.7-1.6c-0.9,0-1.7,0.7-1.7,1.6v7.6h-2.6l0.9-3.1c0-0.1,0-0.1,0-0.2c0.4-0.4,0.7-0.9,0.9-1.5l0.5-2.7
		c0.1-0.6-0.1-1.1-0.4-1.6c-0.4-0.4-0.9-0.7-1.5-0.7h-1.1h-1.1c-0.6,0-1.1,0.3-1.5,0.7s-0.5,1-0.4,1.6l0.5,2.7
		c0.1,0.6,0.4,1.1,0.9,1.5c0,0.1,0,0.1,0,0.2l0.9,3.1h-3.2c-0.3,0-0.6,0.2-0.6,0.5v9.8c0,2.4,2,4.4,4.4,4.4h11.1
		c2.5,0,4.4-2,4.4-4.4v-9.8C160.2,199.3,160,199.1,159.6,199.1z M146.4,190.7c0.2,0.2,0.2,0.4,0.2,0.7l-0.5,2.7
		c-0.1,0.5-0.4,0.9-0.9,1.1v-4.9h0.5C146,190.3,146.2,190.5,146.4,190.7z M142.9,190.7c0.2-0.2,0.4-0.3,0.7-0.3h0.5v4.8
		c-0.4-0.2-0.8-0.6-0.9-1.1l-0.5-2.7C142.7,191.1,142.7,190.8,142.9,190.7z M145,196.4l-0.4,1.3l-0.4-1.3H145z M153,198.5h1.7
		c0.3,0,0.6-0.2,0.6-0.5s-0.2-0.5-0.6-0.5H153v-1.1h1.7c0.3,0,0.6-0.2,0.6-0.5s-0.2-0.5-0.6-0.5H153v-1.2h1.7c0.3,0,0.6-0.2,0.6-0.5
		s-0.2-0.5-0.6-0.5H153V192h1.7c0.3,0,0.6-0.2,0.6-0.5s-0.2-0.5-0.6-0.5H153v-1.7h2.8v9.8H153V198.5z M149.6,190.9
		c0.3,0,0.6,0.2,0.6,0.5v3.8h-1.1v-3.8C149.1,191.1,149.3,190.9,149.6,190.9z M149.1,196.4h1.1v2.7h-1.1V196.4z M159.1,209.5
		c0,1.8-1.5,3.3-3.3,3.3h-11.1c-1.8,0-3.3-1.5-3.3-3.3v-9.3h17.8L159.1,209.5L159.1,209.5z"/>
	<g>
		<g>
			<path class="st1" d="M91.2,200.7h-7.6c0-0.4,0.1-1,0.2-1.8c7.6-0.8,8.6-10.4,8.6-10.9c0-0.1,0-0.1,0-0.2c0,0,0,0,0-0.1
				s-0.1-0.2-0.3-0.3l0,0c-0.1-0.1-0.3-0.1-0.4,0h-0.1c0,0,0,0-0.1,0c-5,2.4-7.2,6-8.3,9c-0.7-2.4-3-7.4-10.1-8.4H73l0,0
				c-0.1,0-0.1,0-0.2,0.1l0,0c-0.1,0-0.1,0.1-0.2,0.1l0,0l0,0l0,0c0,0-0.1,0.1-0.1,0.2l0,0c0,0.1,0,0.1,0,0.2l0,0v0.1
				c0,0.1,2.4,8.2,10,9.6c-0.1,0.4-0.3,1.3-0.2,2.4h-7.4c-0.3,0-0.6,0.3-0.6,0.6v4c0,2.6,1.1,5,3.1,6.6c-0.1,0.1-0.1,0.2-0.1,0.4
				v1.7c0,0.3,0.3,0.6,0.6,0.6h10.6c0.3,0,0.6-0.3,0.6-0.6v-1.7c0-0.1,0-0.3-0.1-0.3c1.9-1.6,3.1-4,3.1-6.6v-4
				C91.8,201,91.5,200.7,91.2,200.7z M85.2,197.5c1.4-1.5,3.7-4.2,5.4-6.6C89.9,193.3,88.4,196.4,85.2,197.5z M90.1,189.6
				c-1.7,2.4-4.1,5.3-5.6,7C85.3,194.3,86.9,191.6,90.1,189.6z M74.5,190.6c1.6,1.4,4,3.6,6.7,6.2C77.6,195.6,75.5,192.6,74.5,190.6
				z M75.2,189.7c4.1,1.3,5.9,4.2,6.7,6.2C79.2,193.2,76.7,191,75.2,189.7z M90.6,205.3c0,2.7-1.4,5.1-3.7,6.5
				c-0.2,0.1-0.3,0.4-0.3,0.7c0.1,0.3,0.3,0.4,0.6,0.4h0.4v0.6h-9.4v-0.6h0.5c0.3,0,0.5-0.2,0.6-0.4c0.1-0.3,0-0.5-0.3-0.7
				c-2.3-1.4-3.7-3.8-3.7-6.5v-3.4h7c0.3,1.1,0.9,2.2,2.1,3.2c0.1,0.1,0.2,0.1,0.4,0.1c0.2,0,0.3-0.1,0.4-0.2
				c0.2-0.2,0.2-0.6-0.1-0.8c-0.9-0.7-1.4-1.6-1.6-2.3h7.1V205.3z"/>
		</g>
	</g>
	<g>
		<g>
			<path class="st2" d="M29.5,194.7h-6.8v-0.5c0-0.2-0.1-0.4-0.3-0.4l-1.4-0.5h-0.1h-1l0,0c0-0.2-0.2-0.4-0.5-0.4h-1.5l0,0
				c0-0.2-0.2-0.4-0.5-0.4H2.2c-1.2-0.2-2.2,0.8-2.2,2v3.2c0,1,0.7,1.9,1.7,2.1l-1.6,8.6c-0.1,0.3,0,0.5,0.2,0.8s0.4,0.3,0.7,0.3h4
				c0.7,0,1.2-0.5,1.2-1.2c0-0.6-0.5-1.1-1.1-1.2l0.8-4.4h1.8c0.2,0,0.3-0.1,0.4-0.2c0.1-0.1,0.1-0.3,0-0.4c0,0-0.4-1-0.1-2.2h3.3
				c0.9,0,1.7-0.2,2.5-0.5l3.1-1.2v0.8h-0.5c-0.3,0-0.5,0.2-0.5,0.5c0,0.2,0.2,0.4,0.5,0.4H17v7.2l0,0c-0.3,0-0.5,0.2-0.5,0.5
				c0,0.2,0.2,0.4,0.5,0.4h2.9c0.3,0,0.5-0.2,0.5-0.4s-0.2-0.5-0.5-0.5l0,0v-7.2h0.5c0.3,0,0.5-0.2,0.5-0.4s-0.2-0.5-0.5-0.5h-0.5
				v-2h1H21l1.5-0.5c0.2-0.1,0.3-0.2,0.3-0.4v-0.5h6.8c0.3,0,0.5-0.2,0.5-0.4C30,194.9,29.8,194.7,29.5,194.7z M7.1,201.9h-1l0.4-2
				h0.7C7,200.7,7,201.4,7.1,201.9z M10.7,199H6.1c-0.2,0-0.4,0.2-0.4,0.4l-1.5,8.1c0,0.1,0,0.3,0.1,0.4c0.1,0.1,0.2,0.2,0.3,0.2
				h0.5c0.2,0,0.3,0.1,0.3,0.3c0,0.1-0.1,0.3-0.3,0.3H1l0,0l0,0l0.1-0.5h1.8c0.3,0,0.5-0.2,0.5-0.4s-0.2-0.5-0.5-0.5H1.3l1.4-7.6
				c0-0.1,0-0.3-0.1-0.4c-0.1-0.1-0.2-0.2-0.3-0.2c-0.7,0-1.3-0.6-1.3-1.3v-3.3c0-0.7,0.6-1.3,1.3-1.3h8.4
				C10.7,193.2,10.7,199,10.7,199z M17,197.2l-3.4,1.4c-0.6,0.2-1.3,0.4-2,0.4v-5.8H17V197.2z M18.9,207.2h-1v-7.3h1V207.2z
				 M18.9,199h-1v-5.3h1V199z M21.8,195.8l-1.1,0.4h-0.9v-2h0.9l1.1,0.4V195.8z M9.7,197.5c0.3,0,0.5-0.2,0.5-0.5v-1.9
				c0-0.2-0.2-0.4-0.5-0.4s-0.5,0.2-0.5,0.4v1.9C9.2,197.3,9.4,197.5,9.7,197.5z M8.2,197.5c0.3,0,0.5-0.2,0.5-0.5v-1.9
				c0-0.2-0.2-0.4-0.5-0.4c-0.2,0-0.4,0.2-0.4,0.4v1.9C7.8,197.3,8,197.5,8.2,197.5z M6.8,197.5c0.3,0,0.5-0.2,0.5-0.5v-1.9
				c-0.1-0.2-0.3-0.4-0.5-0.4c-0.3,0-0.5,0.2-0.5,0.4v1.9C6.3,197.3,6.5,197.5,6.8,197.5z"/>
		</g>
	</g>
</g>
</svg>
