<?xml version="1.0" encoding="utf-8"?>
<!-- Generator: Adobe Illustrator 19.1.0, SVG Export Plug-In . SVG Version: 6.00 Build 0)  -->
<svg version="1.1" id="Layer_1" xmlns="http://www.w3.org/2000/svg" xmlns:xlink="http://www.w3.org/1999/xlink" x="0px" y="0px"
	 viewBox="0 187 220 28" style="enable-background:new 0 187 220 28;" xml:space="preserve">
<style type="text/css">
	.st0{fill:#FF6E00;}
	.st1{fill:#77C720;}
	.st2{fill:#00AEFF;}
</style>
<g>
	<g>
		<g>
			<path class="st0" d="M24.2,205.4l-11.1-6.2v-0.1c0-0.6,0.3-1.2,0.9-1.6c0.6-0.5,0.9-1.3,0.8-2.1c-0.2-0.9-0.9-1.6-1.8-1.8
				c-0.7-0.1-1.3,0.1-1.8,0.5s-0.8,1-0.8,1.7c0,0.3,0.3,0.6,0.6,0.6s0.6-0.3,0.6-0.6s0.1-0.6,0.4-0.8s0.6-0.3,0.9-0.2
				c0.4,0.1,0.8,0.4,0.9,0.9c0.1,0.4-0.1,0.8-0.4,1c-0.8,0.7-1.3,1.6-1.3,2.5v0.1l-11.3,6.1c-0.5,0.3-0.8,0.8-0.8,1.4
				c0,0.9,0.7,1.6,1.6,1.6h21.7c0.9,0,1.6-0.7,1.6-1.6C25,206.2,24.7,205.7,24.2,205.4z M23.4,207.3H1.6c-0.3,0-0.5-0.2-0.5-0.5
				c0-0.2,0.1-0.3,0.3-0.4l11.1-6.2l11.1,6.2c0.2,0.1,0.3,0.3,0.3,0.4C23.9,207.1,23.6,207.3,23.4,207.3z"/>
		</g>
	</g>
	<g>
		<g>
			<path class="st1" d="M85.3,190.8c-2.8,0-5.1,2.1-5.4,4.8H76l-1-5.9c0-0.2-0.2-0.4-0.4-0.4l-3.2-0.5c-0.3-0.1-0.6,0.1-0.6,0.4
				s0.1,0.6,0.4,0.6l2.9,0.5l0.9,5.4h-1.5c-0.2,0-0.3,0.1-0.4,0.2c-0.1,0.1-0.2,0.3-0.1,0.4l1.5,15c0.1,1.1,1,1.9,2.2,1.9h5.7
				c1.1,0,2-0.8,2.2-1.9l1-9.8c3,0,5.4-2.4,5.4-5.3C90.7,193.2,88.3,190.8,85.3,190.8z M83.3,211.1c-0.1,0.5-0.5,1-1.1,1h-5.7
				c-0.6,0-1-0.4-1.1-1L74,196.6h10.7L83.3,211.1z M85.4,200.4l0.3-2.9l0.8,1.1c0.1,0.2,0.3,0.2,0.5,0.2c0.1,0,0.2,0,0.3-0.1
				c0.2-0.2,0.3-0.5,0.2-0.7l-1.1-1.6c-0.1-0.2-0.3-0.2-0.5-0.2c0-0.1,0-0.3-0.1-0.4c-0.1-0.1-0.2-0.2-0.4-0.2l0,0
				c0.3,0,0.5-0.2,0.5-0.5V193c0-0.3-0.2-0.5-0.5-0.5l0,0c-0.3,0-0.5,0.2-0.5,0.5v2.1c0,0.3,0.2,0.5,0.5,0.5h-0.5
				c0-0.1-0.1-0.3-0.2-0.4l-1.6-1.6c-0.2-0.2-0.6-0.2-0.8,0c-0.2,0.2-0.2,0.5,0,0.8l1.2,1.2h-2.4c0.3-2.1,2.1-3.7,4.3-3.7
				c2.4,0,4.3,1.9,4.3,4.3C89.6,198.4,87.7,200.3,85.4,200.4z M76.1,208.9c0,0.3,0.3,0.5,0.5,0.5c0,0,0,0,0.1,0
				c0.3,0,0.5-0.3,0.5-0.6l-1.1-9.6c0-0.3-0.3-0.5-0.6-0.5c-0.3,0-0.5,0.3-0.5,0.6L76.1,208.9z M88.4,194.2
				c-0.2-0.2-0.5-0.3-0.7-0.1l-1.6,1.1c-0.2,0.2-0.3,0.5-0.2,0.7c0.1,0.2,0.3,0.2,0.5,0.2c0.1,0,0.2,0,0.3-0.1l1.6-1.1
				C88.5,194.8,88.6,194.5,88.4,194.2z"/>
		</g>
	</g>
	<g>
		<g>
			<path class="st2" d="M153.4,201.2c0.1-0.2,0.1-0.4,0.1-0.5c1.6-0.5,6.3-2.2,6.5-4.1c0.2-1.3-1-2.9-2.1-4s-2.8-2.3-4.1-2.1
				c-1.9,0.2-3.7,4.8-4.2,6.4c-0.2,0-0.4,0-0.6,0.1c-0.5-1.5-2.3-6.3-4.2-6.5c-1.3-0.2-2.9,1-4.1,2.1c-1.1,1.1-2.3,2.8-2.1,4
				c0.2,1.9,5.1,3.7,6.6,4.2c-0.1,0.2-0.1,0.4-0.1,0.5c-1.6,0.5-6.3,2.2-6.5,4.1c-0.2,1.3,1,2.9,2.1,4c1.1,1,2.6,2.1,3.8,2.1
				c0.1,0,0.2,0,0.2,0c1.9-0.2,3.7-4.8,4.2-6.4h0.1c0.2,0,0.3,0,0.5-0.1c0.5,1.5,2.3,6.2,4.2,6.5c0.1,0,0.2,0,0.2,0
				c1.2,0,2.8-1.1,3.8-2.1c1.1-1.1,2.3-2.8,2.1-4C159.7,203.4,154.9,201.7,153.4,201.2z M153.9,191.3c0.7-0.1,2.1,0.7,3.2,1.8
				c1.2,1.2,1.9,2.5,1.8,3.2c-0.1,1-3.4,2.5-5.9,3.3c0,0,0,0,0-0.1l-0.5-0.5c0.9-0.4,2.4-1.1,3.4-1.9c0.2-0.2,0.2-0.5,0-0.7
				s-0.5-0.2-0.7,0c-1,0.9-2.8,1.7-3.5,1.9l-0.4-0.3c0.6-1,1.9-2.8,2.7-3.4c0.2-0.2,0.3-0.5,0.1-0.7s-0.5-0.3-0.7-0.1
				c-0.9,0.7-2.2,2.5-2.8,3.5l-0.2-0.2c0,0,0,0-0.1,0C151.3,194.7,152.9,191.5,153.9,191.3z M139.6,196.4c-0.1-0.7,0.7-2,1.8-3.2
				c1.2-1.2,2.5-1.9,3.2-1.8c1.1,0.1,2.7,3.6,3.5,6.1l0,0l-0.5,0.5c-0.3-0.8-1.1-2.5-2.1-3.6c-0.2-0.2-0.5-0.2-0.7,0s-0.2,0.5,0,0.7
				c1.1,1.3,2.1,3.7,2.1,3.7l0,0l-0.2,0.2c-0.9-0.5-3.1-2-3.7-2.8c-0.2-0.2-0.5-0.3-0.7-0.1s-0.3,0.5-0.1,0.7c0.7,1,3,2.5,3.8,3
				l-0.2,0.2l0,0C143.2,199,139.7,197.4,139.6,196.4z M144.7,210.5c-0.7,0.1-2.1-0.7-3.2-1.8c-1.2-1.2-1.9-2.5-1.8-3.2
				c0.1-1,3.4-2.5,5.9-3.3c0,0,0,0,0,0.1l0.5,0.5c-0.9,0.4-2.5,1.2-3.8,2.3c-0.2,0.2-0.2,0.5-0.1,0.7c0.1,0.1,0.2,0.2,0.4,0.2
				c0.1,0,0.2,0,0.3-0.1c1.2-1,2.7-1.8,3.5-2.2c0,0-0.3,1.4-1.6,3.2c-0.2,0.2-0.1,0.5,0.1,0.7c0.1,0.1,0.2,0.1,0.3,0.1
				c0.2,0,0.3-0.1,0.4-0.2c1.2-1.6,1.7-3,1.8-3.4l0.7,0.7c0,0,0,0,0.1,0C147.2,207.1,145.7,210.3,144.7,210.5z M148.7,203.9
				l-1.5-1.4l0,0l-1-1c-0.2-0.2-0.2-0.5,0-0.7l2.9-2.9c0.1-0.1,0.2-0.1,0.4-0.1s0.3,0,0.4,0.1l2.5,2.5c0.2,0.2,0.2,0.5,0,0.7
				l-2.9,2.9C149.2,204.1,148.9,204.1,148.7,203.9z M157.1,208.6c-1.2,1.2-2.5,1.9-3.2,1.8c-1.1-0.1-2.7-3.6-3.5-6.1l0,0l0.6-0.5
				c0.4,0.8,1.3,2.6,2.5,4c0.1,0.1,0.2,0.2,0.4,0.2c0.1,0,0.2,0,0.3-0.1c0.2-0.2,0.2-0.5,0.1-0.7c-1-1.2-1.8-2.6-2.2-3.5
				c0,0,1.5,0.3,3.3,1.6c0.1,0.1,0.2,0.1,0.3,0.1c0.2,0,0.3-0.1,0.4-0.2c0.2-0.2,0.1-0.5-0.1-0.7c-2-1.5-3.6-1.8-3.7-1.8
				c-0.1,0-0.1,0-0.2,0l0.8-0.8l0,0c2.5,0.8,6,2.4,6.2,3.4C159.1,206.2,158.3,207.5,157.1,208.6z"/>
		</g>
	</g>
</g>
</svg>
