<?xml version="1.0" encoding="utf-8"?>
<!-- Generator: Adobe Illustrator 19.1.0, SVG Export Plug-In . SVG Version: 6.00 Build 0)  -->
<svg version="1.1" id="Layer_1" xmlns="http://www.w3.org/2000/svg" xmlns:xlink="http://www.w3.org/1999/xlink" x="0px" y="0px"
	 viewBox="0 187 220 28" style="enable-background:new 0 187 220 28;" xml:space="preserve">
<style type="text/css">
	.st0{fill:#00AEFF;}
	.st1{fill:#FF6E00;}
	.st2{fill:#7AC143;}
</style>
<g>
	<g>
		<g>
			<path class="st0" d="M89.5,189.4h-15c-1.4,0-2.5,1.1-2.5,2.5v17.2c0,1.4,1.1,2.5,2.5,2.5v0.5c0,0.3,0.2,0.5,0.5,0.5
				s0.5-0.2,0.5-0.5v-0.5h13v0.5c0,0.3,0.2,0.5,0.5,0.5s0.5-0.2,0.5-0.5v-0.5c1.4,0,2.5-1.1,2.5-2.5v-17.2
				C92,190.5,90.9,189.4,89.5,189.4z M91,209.1c0,0.8-0.7,1.5-1.5,1.5h-15c-0.8,0-1.5-0.7-1.5-1.5v-13.8h18V209.1z M91,194.4H73
				v-2.5c0-0.8,0.7-1.5,1.5-1.5h15c0.8,0,1.5,0.7,1.5,1.5V194.4z M82,209.1c3.6,0,6.5-2.9,6.5-6.4s-2.9-6.4-6.5-6.4
				s-6.5,2.9-6.5,6.4S78.4,209.1,82,209.1z M82,197.3c3,0,5.5,2.4,5.5,5.4s-2.5,5.4-5.5,5.4s-5.5-2.4-5.5-5.4S79,197.3,82,197.3z
				 M82,207.1c2.5,0,4.5-2,4.5-4.4s-2-4.4-4.5-4.4s-4.5,2-4.5,4.4C77.5,205.2,79.5,207.1,82,207.1z M82,199.3c1.9,0,3.5,1.5,3.5,3.4
				s-1.6,3.4-3.5,3.4s-3.5-1.5-3.5-3.4S80.1,199.3,82,199.3z M83.5,205.6c0.1,0,0.3,0,0.4-0.1c0.2-0.2,0.2-0.5,0-0.7
				c-1.2-1.1-1.2-3,0-4.2c0.2-0.2,0.2-0.5,0-0.7c-0.2-0.2-0.5-0.2-0.7,0c-1.6,1.5-1.6,4,0,5.6C83.3,205.6,83.4,205.6,83.5,205.6z
				 M88,191.4c-0.6,0-1,0.4-1,1c0,0.5,0.4,1,1,1s1-0.4,1-1C89,191.9,88.6,191.4,88,191.4z M85,191.4c-0.3,0-0.5,0.2-0.5,0.5v1
				c0,0.3,0.2,0.5,0.5,0.5s0.5-0.2,0.5-0.5v-1C85.5,191.6,85.3,191.4,85,191.4z M83.5,191.4c-0.3,0-0.5,0.2-0.5,0.5v1
				c0,0.3,0.2,0.5,0.5,0.5s0.5-0.2,0.5-0.5v-1C84,191.6,83.8,191.4,83.5,191.4z"/>
		</g>
	</g>
	<g>
		<g>
			<path class="st1" d="M155.2,202.4c-2.7,0-4.8,2.1-4.8,4.7s2.2,4.7,4.8,4.7c2.7,0,4.8-2.1,4.8-4.7
				C160,204.6,157.8,202.4,155.2,202.4z M155.2,211c-2.1,0-3.9-1.7-3.9-3.8s1.7-3.8,3.9-3.8c2.1,0,3.9,1.7,3.9,3.8
				C159.1,209.3,157.3,211,155.2,211z M156.7,204.8c-0.2-0.1-0.5-0.1-0.6,0.2l-2.4,3.9c-0.1,0.2-0.1,0.5,0.2,0.6
				c0.1,0,0.2,0.1,0.2,0.1c0.2,0,0.3-0.1,0.4-0.2l2.4-3.9C156.9,205.2,156.9,205,156.7,204.8z M141.8,208.7L141.8,208.7
				c-0.5-0.3-0.7-0.7-0.8-1.1s0-0.9,0.2-1.3c0.1-0.2,0.1-0.5-0.1-0.6c-0.2-0.1-0.5-0.1-0.6,0.1c-0.4,0.6-0.5,1.3-0.3,2
				c0.2,0.7,0.6,1.3,1.2,1.6h0.1c0.1,0,0.2,0.1,0.2,0.1c0.2,0,0.3-0.1,0.4-0.2C142.1,209.1,142,208.8,141.8,208.7z M151.9,192.7
				L151.9,192.7c-0.3-0.2-0.6-0.1-0.7,0.1c-0.1,0.2-0.1,0.5,0.1,0.6h0.1c0.8,0.5,1,1.5,0.5,2.3c-0.1,0.2-0.1,0.5,0.1,0.6
				c0.1,0,0.2,0.1,0.3,0.1c0.2,0,0.3-0.1,0.4-0.2C153.6,195.1,153.2,193.5,151.9,192.7z M150.6,203.5L150.6,203.5l3.9-6.2
				c0.7-1,0.9-2.3,0.6-3.5c-0.3-1.2-1-2.2-2.1-2.9h-0.1c-0.7-0.5-1.6-0.7-2.5-0.7c-1.6,0-3.1,0.8-3.9,2.2l-7.8,12.3
				c-0.7,1-0.9,2.3-0.6,3.5c0.3,1.2,1,2.2,2.1,2.9h0.1c0.7,0.5,1.6,0.7,2.5,0.7c1.6,0,3.1-0.8,3.9-2.2L150.6,203.5L150.6,203.5z
				 M145.9,209.2c-0.7,1.1-1.9,1.7-3.1,1.7c-0.7,0-1.4-0.2-2-0.6h-0.1c-0.8-0.5-1.4-1.3-1.6-2.3c-0.2-1-0.1-1.9,0.5-2.8l3.7-5.8
				l6.4,3.9L145.9,209.2z M143.7,198.7l3.7-5.8c0.7-1.1,1.9-1.7,3.1-1.7c0.7,0,1.4,0.2,2,0.6h0.1c0.8,0.5,1.4,1.3,1.6,2.3
				c0.2,1,0.1,1.9-0.5,2.8l-3.7,5.8L143.7,198.7z"/>
		</g>
	</g>
	<path class="st2" d="M26.9,196.9c-0.3,0-0.6,0.3-0.6,0.6v3.5h-1.2v-2.9c0-0.3-0.3-0.6-0.6-0.6h-2.8l-0.5-1.7
		c-0.1-0.2-0.3-0.4-0.6-0.4h-4.2v-1.6H19c0.3,0,0.6-0.3,0.6-0.6v-2c0-0.3-0.3-0.6-0.6-0.6h-8.6c-0.3,0-0.6,0.3-0.6,0.6v2
		c0,0.3,0.3,0.6,0.6,0.6h2.7v1.5H7c-0.2,0-0.4,0.1-0.5,0.3l-1,1.8H3.1c-0.3,0-0.6,0.3-0.6,0.6v2.9H1.2v-4.1c0-0.3-0.3-0.6-0.6-0.6
		c-0.3,0-0.6,0.2-0.6,0.6v12.1c0,0.3,0.3,0.6,0.6,0.6c0.3,0,0.6-0.3,0.6-0.6v-4.2h1.3v3.1c0,0.3,0.3,0.6,0.6,0.6h5l2.3,2.9
		c0.1,0.1,0.3,0.2,0.5,0.2h13.6c0.3,0,0.6-0.3,0.6-0.6v-6.2h1.2v3.5c0,0.3,0.3,0.6,0.6,0.6c1.7,0,3.1-1.4,3.1-3.1V200
		C30,198.3,28.6,196.9,26.9,196.9z M1.2,203.4V202h1.3v1.4H1.2z M11.1,191.9h7.4v0.8h-7.4V191.9z M14.3,193.8h0.9v1.5h-0.9V193.8z
		 M3.7,198.6h0.4v8.6H3.7V198.6z M8.9,207.4c-0.1-0.1-0.3-0.2-0.5-0.2h-3v-8.6h0.5c0.2,0,0.4-0.1,0.5-0.3l1-1.8h12.8l0.5,1.7
		c0.1,0.2,0.3,0.4,0.6,0.4h1.1v11.7H11.1L8.9,207.4z M23.9,210.3h-0.4v-11.7h0.4V210.3z M25.1,203.4V202h1.2v1.4H25.1z M28.8,205.7
		c0,0.8-0.6,1.6-1.3,1.8v-9.3c0.8,0.2,1.3,1,1.3,1.8V205.7z"/>
</g>
</svg>
